<svg xmlns="http://www.w3.org/2000/svg" version="1.1" xmlns:xlink="http://www.w3.org/1999/xlink" xmlns:svgjs="http://svgjs.dev/svgjs" viewBox="0 0 24.5737276698067 25.990086740078553"><g transform="matrix(1,0,0,1,2.1058335614658503,19.989895268456458)"><rect width="25.990086740078553" height="25.990086740078553" x="-2.8140130966017765" y="-19.989895268456458" fill="#102036"></rect><g><path d=" M 0.61669921875 0.345703125 Q 0.613037109375 0.320068359375 0.5987548828125 0.29736328125 Q 0.58447265625 0.274658203125 0.5621337890625 0.2581787109375 Q 0.539794921875 0.24169921875 0.5115966796875 0.232177734375 Q 0.4833984375 0.22265625 0.45263671875 0.22265625 Q 0.4248046875 0.22265625 0.400634765625 0.228515625 Q 0.37646484375 0.234375 0.3585205078125 0.2464599609375 Q 0.340576171875 0.258544921875 0.3299560546875 0.277587890625 Q 0.3193359375 0.296630859375 0.3193359375 0.322998046875 Q 0.3193359375 0.35595703125 0.3336181640625 0.3753662109375 Q 0.347900390625 0.394775390625 0.3702392578125 0.4072265625 Q 0.392578125 0.419677734375 0.419677734375 0.427001953125 Q 0.44677734375 0.434326171875 0.472412109375 0.443115234375 L 0.673828125 0.510498046875 Q 0.715576171875 0.525146484375 0.752197265625 0.55078125 Q 0.788818359375 0.576416015625 0.8155517578125 0.613037109375 Q 0.84228515625 0.649658203125 0.857666015625 0.697265625 Q 0.873046875 0.744873046875 0.873046875 0.80419921875 Q 0.873046875 0.884765625 0.8433837890625 0.951416015625 Q 0.813720703125 1.01806640625 0.76025390625 1.065673828125 Q 0.706787109375 1.11328125 0.632080078125 1.1396484375 Q 0.557373046875 1.166015625 0.466552734375 1.166015625 Q 0.40283203125 1.166015625 0.3460693359375 1.1517333984375 Q 0.289306640625 1.137451171875 0.242431640625 1.1103515625 Q 0.195556640625 1.083251953125 0.160400390625 1.0455322265625 Q 0.125244140625 1.0078125 0.10546875 0.960205078125 L 0.030029296875 0.960205078125 L 0.030029296875 0.73974609375 L 0.295166015625 0.73974609375 L 0.295166015625 0.78515625 Q 0.295166015625 0.818115234375 0.3057861328125 0.845947265625 Q 0.31640625 0.873779296875 0.337646484375 0.894287109375 Q 0.35888671875 0.914794921875 0.39111328125 0.9261474609375 Q 0.42333984375 0.9375 0.466552734375 0.9375 Q 0.532470703125 0.9375 0.56689453125 0.9071044921875 Q 0.601318359375 0.876708984375 0.601318359375 0.822509765625 Q 0.601318359375 0.794677734375 0.5892333984375 0.7760009765625 Q 0.5771484375 0.75732421875 0.55810546875 0.7445068359375 Q 0.5390625 0.731689453125 0.515625 0.722900390625 Q 0.4921875 0.714111328125 0.469482421875 0.706787109375 L 0.3017578125 0.652587890625 Q 0.254150390625 0.637939453125 0.2098388671875 0.611572265625 Q 0.16552734375 0.585205078125 0.1314697265625 0.545654296875 Q 0.097412109375 0.506103515625 0.0772705078125 0.4530029296875 Q 0.05712890625 0.39990234375 0.05712890625 0.331787109375 Q 0.05712890625 0.252685546875 0.08642578125 0.1907958984375 Q 0.11572265625 0.12890625 0.16845703125 0.08642578125 Q 0.22119140625 0.0439453125 0.293701171875 0.02197265625 Q 0.3662109375 0 0.45263671875 0 Q 0.520751953125 0 0.57861328125 0.0157470703125 Q 0.636474609375 0.031494140625 0.6822509765625 0.057861328125 Q 0.72802734375 0.084228515625 0.7598876953125 0.1182861328125 Q 0.791748046875 0.15234375 0.80859375 0.18896484375 L 0.8818359375 0.18896484375 L 0.8818359375 0.41015625 L 0.61669921875 0.41015625 L 0.61669921875 0.345703125 M 1.43994140625 0.384521484375 L 1.798828125 0.384521484375 L 1.798828125 0.942626953125 L 1.890380859375 0.942626953125 L 1.890380859375 1.143310546875 L 1.56884765625 1.143310546875 L 1.56884765625 1.078857421875 Q 1.530029296875 1.114013671875 1.47802734375 1.133056640625 Q 1.426025390625 1.152099609375 1.35791015625 1.152099609375 Q 1.294921875 1.152099609375 1.2392578125 1.13232421875 Q 1.18359375 1.112548828125 1.1422119140625 1.0726318359375 Q 1.100830078125 1.03271484375 1.0770263671875 0.97265625 Q 1.05322265625 0.91259765625 1.05322265625 0.831298828125 L 1.05322265625 0.585205078125 L 0.954345703125 0.585205078125 L 0.954345703125 0.384521484375 L 1.289794921875 0.384521484375 L 1.289794921875 0.831298828125 Q 1.289794921875 0.907470703125 1.32861328125 0.9451904296875 Q 1.367431640625 0.98291015625 1.4296875 0.98291015625 Q 1.4736328125 0.98291015625 1.509521484375 0.955810546875 Q 1.54541015625 0.9287109375 1.5615234375 0.882568359375 L 1.5615234375 0.585205078125 L 1.43994140625 0.585205078125 L 1.43994140625 0.384521484375 M 2.44921875 0.003662109375 L 2.781005859375 0.003662109375 L 2.781005859375 0.942626953125 L 2.928955078125 0.942626953125 L 2.928955078125 1.143310546875 L 2.555419921875 1.143310546875 L 2.555419921875 1.114013671875 Q 2.515869140625 1.134521484375 2.4744873046875 1.146240234375 Q 2.43310546875 1.157958984375 2.390625 1.157958984375 Q 2.303466796875 1.157958984375 2.2305908203125 1.1268310546875 Q 2.15771484375 1.095703125 2.1053466796875 1.04150390625 Q 2.052978515625 0.9873046875 2.023681640625 0.9144287109375 Q 1.994384765625 0.841552734375 1.994384765625 0.758056640625 Q 1.994384765625 0.674560546875 2.0233154296875 0.6024169921875 Q 2.05224609375 0.5302734375 2.1038818359375 0.476806640625 Q 2.155517578125 0.42333984375 2.2276611328125 0.392578125 Q 2.2998046875 0.36181640625 2.38623046875 0.36181640625 Q 2.433837890625 0.36181640625 2.4755859375 0.3709716796875 Q 2.517333984375 0.380126953125 2.555419921875 0.39697265625 L 2.555419921875 0.204345703125 L 2.44921875 0.204345703125 L 2.44921875 0.003662109375 M 2.403076171875 0.955810546875 Q 2.451416015625 0.954345703125 2.4906005859375 0.930908203125 Q 2.52978515625 0.907470703125 2.555419921875 0.869384765625 L 2.555419921875 0.64599609375 Q 2.52978515625 0.607177734375 2.4891357421875 0.5855712890625 Q 2.448486328125 0.56396484375 2.403076171875 0.564697265625 Q 2.364990234375 0.56396484375 2.3316650390625 0.577880859375 Q 2.29833984375 0.591796875 2.2730712890625 0.617431640625 Q 2.247802734375 0.64306640625 2.233154296875 0.678955078125 Q 2.218505859375 0.71484375 2.218505859375 0.76025390625 Q 2.218505859375 0.804931640625 2.233154296875 0.8411865234375 Q 2.247802734375 0.87744140625 2.2730712890625 0.9027099609375 Q 2.29833984375 0.927978515625 2.3316650390625 0.941162109375 Q 2.364990234375 0.954345703125 2.403076171875 0.955810546875 M 3.49072265625 1.102294921875 Q 3.465087890625 1.118408203125 3.44384765625 1.1297607421875 Q 3.422607421875 1.14111328125 3.4013671875 1.1480712890625 Q 3.380126953125 1.155029296875 3.357421875 1.1583251953125 Q 3.334716796875 1.16162109375 3.3076171875 1.16162109375 Q 3.239501953125 1.16162109375 3.1856689453125 1.1429443359375 Q 3.1318359375 1.124267578125 3.0948486328125 1.0916748046875 Q 3.057861328125 1.05908203125 3.0380859375 1.0147705078125 Q 3.018310546875 0.970458984375 3.018310546875 0.91845703125 Q 3.018310546875 0.86572265625 3.0384521484375 0.821044921875 Q 3.05859375 0.7763671875 3.0966796875 0.7445068359375 Q 3.134765625 0.712646484375 3.1900634765625 0.6947021484375 Q 3.245361328125 0.6767578125 3.31640625 0.6767578125 Q 3.368408203125 0.6767578125 3.4112548828125 0.6822509765625 Q 3.4541015625 0.687744140625 3.49072265625 0.69580078125 L 3.49072265625 0.67236328125 Q 3.49072265625 0.643798828125 3.479736328125 0.6229248046875 Q 3.46875 0.60205078125 3.448974609375 0.5885009765625 Q 3.42919921875 0.574951171875 3.4013671875 0.5687255859375 Q 3.37353515625 0.5625 3.340576171875 0.5625 Q 3.271728515625 0.5625 3.2193603515625 0.5760498046875 Q 3.1669921875 0.589599609375 3.11865234375 0.615234375 L 3.04833984375 0.47314453125 Q 3.123046875 0.421875 3.2047119140625 0.394775390625 Q 3.286376953125 0.36767578125 3.3779296875 0.36767578125 Q 3.448974609375 0.36767578125 3.5093994140625 0.3834228515625 Q 3.56982421875 0.399169921875 3.613037109375 0.4346923828125 Q 3.65625 0.47021484375 3.6807861328125 0.52734375 Q 3.705322265625 0.58447265625 3.705322265625 0.66650390625 L 3.705322265625 0.942626953125 L 3.80712890625 0.942626953125 L 3.80712890625 1.143310546875 L 3.49072265625 1.143310546875 L 3.49072265625 1.102294921875 M 3.32373046875 0.98876953125 Q 3.375732421875 0.98876953125 3.418212890625 0.971923828125 Q 3.460693359375 0.955078125 3.49072265625 0.930908203125 L 3.49072265625 0.834228515625 L 3.31494140625 0.834228515625 Q 3.298095703125 0.834228515625 3.281982421875 0.83935546875 Q 3.265869140625 0.844482421875 3.2530517578125 0.85400390625 Q 3.240234375 0.863525390625 3.2325439453125 0.87744140625 Q 3.224853515625 0.891357421875 3.224853515625 0.90966796875 Q 3.224853515625 0.943359375 3.2493896484375 0.966064453125 Q 3.27392578125 0.98876953125 3.32373046875 0.98876953125 M 4.648681640625 0.66064453125 L 4.44287109375 0.66064453125 L 4.44287109375 0.582275390625 Q 4.412841796875 0.582275390625 4.387939453125 0.5863037109375 Q 4.363037109375 0.59033203125 4.3443603515625 0.599853515625 Q 4.32568359375 0.609375 4.3128662109375 0.626220703125 Q 4.300048828125 0.64306640625 4.294921875 0.66796875 L 4.294921875 0.942626953125 L 4.449462890625 0.942626953125 L 4.449462890625 1.143310546875 L 3.954345703125 1.143310546875 L 3.954345703125 0.942626953125 L 4.06787109375 0.942626953125 L 4.06787109375 0.585205078125 L 3.955810546875 0.585205078125 L 3.955810546875 0.384521484375 L 4.29345703125 0.384521484375 L 4.29345703125 0.43798828125 Q 4.32568359375 0.412353515625 4.365966796875 0.3984375 Q 4.40625 0.384521484375 4.453857421875 0.384521484375 Q 4.502197265625 0.384521484375 4.553466796875 0.38525390625 Q 4.604736328125 0.385986328125 4.648681640625 0.385986328125 L 4.648681640625 0.66064453125 M 5.2445068359375 0.5830078125 Q 5.233154296875 0.56689453125 5.211181640625 0.5548095703125 Q 5.189208984375 0.542724609375 5.1573486328125 0.535400390625 Q 5.12548828125 0.528076171875 5.085205078125 0.528076171875 Q 5.06982421875 0.528076171875 5.05224609375 0.5306396484375 Q 5.03466796875 0.533203125 5.0196533203125 0.539794921875 Q 5.004638671875 0.54638671875 4.9947509765625 0.5577392578125 Q 4.98486328125 0.569091796875 4.98486328125 0.586669921875 Q 4.98486328125 0.595458984375 4.9874267578125 0.603515625 Q 4.989990234375 0.611572265625 4.997314453125 0.618896484375 Q 5.004638671875 0.626220703125 5.0174560546875 0.6324462890625 Q 5.0302734375 0.638671875 5.05078125 0.642333984375 L 5.1884765625 0.66943359375 Q 5.26318359375 0.68408203125 5.313720703125 0.7060546875 Q 5.3642578125 0.72802734375 5.39501953125 0.75732421875 Q 5.42578125 0.78662109375 5.4393310546875 0.822509765625 Q 5.452880859375 0.8583984375 5.452880859375 0.900146484375 Q 5.452880859375 0.96533203125 5.4224853515625 1.014404296875 Q 5.39208984375 1.0634765625 5.3426513671875 1.0960693359375 Q 5.293212890625 1.128662109375 5.2313232421875 1.1451416015625 Q 5.16943359375 1.16162109375 5.1064453125 1.16162109375 Q 5.0654296875 1.16162109375 5.0321044921875 1.156494140625 Q 4.998779296875 1.1513671875 4.9720458984375 1.142578125 Q 4.9453125 1.1337890625 4.9244384765625 1.1217041015625 Q 4.903564453125 1.109619140625 4.885986328125 1.094970703125 L 4.75341796875 1.094970703125 L 4.75341796875 0.891357421875 L 4.960693359375 0.891357421875 L 4.960693359375 0.895751953125 Q 4.96142578125 0.9169921875 4.973876953125 0.9327392578125 Q 4.986328125 0.948486328125 5.0064697265625 0.95947265625 Q 5.026611328125 0.970458984375 5.05224609375 0.9759521484375 Q 5.077880859375 0.9814453125 5.1064453125 0.9814453125 Q 5.17236328125 0.9814453125 5.202392578125 0.9642333984375 Q 5.232421875 0.947021484375 5.232421875 0.919921875 Q 5.232421875 0.898681640625 5.2177734375 0.8836669921875 Q 5.203125 0.86865234375 5.165771484375 0.85986328125 L 5.025146484375 0.829833984375 Q 4.892578125 0.80419921875 4.8251953125 0.7445068359375 Q 4.7578125 0.684814453125 4.7578125 0.591064453125 Q 4.7578125 0.5361328125 4.783447265625 0.4910888671875 Q 4.80908203125 0.446044921875 4.85302734375 0.4141845703125 Q 4.89697265625 0.38232421875 4.9559326171875 0.36474609375 Q 5.014892578125 0.34716796875 5.082275390625 0.34716796875 Q 5.12841796875 0.34716796875 5.164306640625 0.3526611328125 Q 5.2001953125 0.358154296875 5.228759765625 0.366943359375 Q 5.25732421875 0.375732421875 5.2789306640625 0.3878173828125 Q 5.300537109375 0.39990234375 5.3173828125 0.4130859375 L 5.44482421875 0.4130859375 L 5.44482421875 0.61669921875 L 5.255859375 0.61669921875 Q 5.255859375 0.59912109375 5.2445068359375 0.5830078125 M 6.0439453125 1.102294921875 Q 6.018310546875 1.118408203125 5.9970703125 1.1297607421875 Q 5.975830078125 1.14111328125 5.95458984375 1.1480712890625 Q 5.933349609375 1.155029296875 5.91064453125 1.1583251953125 Q 5.887939453125 1.16162109375 5.86083984375 1.16162109375 Q 5.792724609375 1.16162109375 5.7388916015625 1.1429443359375 Q 5.68505859375 1.124267578125 5.6480712890625 1.0916748046875 Q 5.611083984375 1.05908203125 5.59130859375 1.0147705078125 Q 5.571533203125 0.970458984375 5.571533203125 0.91845703125 Q 5.571533203125 0.86572265625 5.5916748046875 0.821044921875 Q 5.61181640625 0.7763671875 5.64990234375 0.7445068359375 Q 5.68798828125 0.712646484375 5.7432861328125 0.6947021484375 Q 5.798583984375 0.6767578125 5.86962890625 0.6767578125 Q 5.921630859375 0.6767578125 5.9644775390625 0.6822509765625 Q 6.00732421875 0.687744140625 6.0439453125 0.69580078125 L 6.0439453125 0.67236328125 Q 6.0439453125 0.643798828125 6.032958984375 0.6229248046875 Q 6.02197265625 0.60205078125 6.002197265625 0.5885009765625 Q 5.982421875 0.574951171875 5.95458984375 0.5687255859375 Q 5.9267578125 0.5625 5.893798828125 0.5625 Q 5.824951171875 0.5625 5.7725830078125 0.5760498046875 Q 5.72021484375 0.589599609375 5.671875 0.615234375 L 5.6015625 0.47314453125 Q 5.67626953125 0.421875 5.7579345703125 0.394775390625 Q 5.839599609375 0.36767578125 5.93115234375 0.36767578125 Q 6.002197265625 0.36767578125 6.0626220703125 0.3834228515625 Q 6.123046875 0.399169921875 6.166259765625 0.4346923828125 Q 6.20947265625 0.47021484375 6.2340087890625 0.52734375 Q 6.258544921875 0.58447265625 6.258544921875 0.66650390625 L 6.258544921875 0.942626953125 L 6.3603515625 0.942626953125 L 6.3603515625 1.143310546875 L 6.0439453125 1.143310546875 L 6.0439453125 1.102294921875 M 5.876953125 0.98876953125 Q 5.928955078125 0.98876953125 5.971435546875 0.971923828125 Q 6.013916015625 0.955078125 6.0439453125 0.930908203125 L 6.0439453125 0.834228515625 L 5.8681640625 0.834228515625 Q 5.851318359375 0.834228515625 5.835205078125 0.83935546875 Q 5.819091796875 0.844482421875 5.8062744140625 0.85400390625 Q 5.79345703125 0.863525390625 5.7857666015625 0.87744140625 Q 5.778076171875 0.891357421875 5.778076171875 0.90966796875 Q 5.778076171875 0.943359375 5.8026123046875 0.966064453125 Q 5.8271484375 0.98876953125 5.876953125 0.98876953125 M 7.137451171875 0.706787109375 Q 7.137451171875 0.64306640625 7.103759765625 0.6068115234375 Q 7.070068359375 0.570556640625 7.014404296875 0.570556640625 Q 6.976318359375 0.570556640625 6.9375 0.58740234375 Q 6.898681640625 0.604248046875 6.862060546875 0.650390625 L 6.862060546875 0.942626953125 L 6.985107421875 0.942626953125 L 6.985107421875 1.143310546875 L 6.513427734375 1.143310546875 L 6.513427734375 0.942626953125 L 6.624755859375 0.942626953125 L 6.624755859375 0.585205078125 L 6.514892578125 0.585205078125 L 6.514892578125 0.384521484375 L 6.860595703125 0.384521484375 L 6.860595703125 0.451171875 Q 6.908203125 0.413818359375 6.9671630859375 0.3922119140625 Q 7.026123046875 0.37060546875 7.09130859375 0.37060546875 Q 7.228271484375 0.37060546875 7.30224609375 0.4471435546875 Q 7.376220703125 0.523681640625 7.376220703125 0.6708984375 L 7.376220703125 0.942626953125 L 7.48388671875 0.942626953125 L 7.48388671875 1.143310546875 L 7.137451171875 1.143310546875 L 7.137451171875 0.706787109375 M 8.0478515625 1.102294921875 Q 8.022216796875 1.118408203125 8.0009765625 1.1297607421875 Q 7.979736328125 1.14111328125 7.95849609375 1.1480712890625 Q 7.937255859375 1.155029296875 7.91455078125 1.1583251953125 Q 7.891845703125 1.16162109375 7.86474609375 1.16162109375 Q 7.796630859375 1.16162109375 7.7427978515625 1.1429443359375 Q 7.68896484375 1.124267578125 7.6519775390625 1.0916748046875 Q 7.614990234375 1.05908203125 7.59521484375 1.0147705078125 Q 7.575439453125 0.970458984375 7.575439453125 0.91845703125 Q 7.575439453125 0.86572265625 7.5955810546875 0.821044921875 Q 7.61572265625 0.7763671875 7.65380859375 0.7445068359375 Q 7.69189453125 0.712646484375 7.7471923828125 0.6947021484375 Q 7.802490234375 0.6767578125 7.87353515625 0.6767578125 Q 7.925537109375 0.6767578125 7.9683837890625 0.6822509765625 Q 8.01123046875 0.687744140625 8.0478515625 0.69580078125 L 8.0478515625 0.67236328125 Q 8.0478515625 0.643798828125 8.036865234375 0.6229248046875 Q 8.02587890625 0.60205078125 8.006103515625 0.5885009765625 Q 7.986328125 0.574951171875 7.95849609375 0.5687255859375 Q 7.9306640625 0.5625 7.897705078125 0.5625 Q 7.828857421875 0.5625 7.7764892578125 0.5760498046875 Q 7.72412109375 0.589599609375 7.67578125 0.615234375 L 7.60546875 0.47314453125 Q 7.68017578125 0.421875 7.7618408203125 0.394775390625 Q 7.843505859375 0.36767578125 7.93505859375 0.36767578125 Q 8.006103515625 0.36767578125 8.0665283203125 0.3834228515625 Q 8.126953125 0.399169921875 8.170166015625 0.4346923828125 Q 8.21337890625 0.47021484375 8.2379150390625 0.52734375 Q 8.262451171875 0.58447265625 8.262451171875 0.66650390625 L 8.262451171875 0.942626953125 L 8.3642578125 0.942626953125 L 8.3642578125 1.143310546875 L 8.0478515625 1.143310546875 L 8.0478515625 1.102294921875 M 7.880859375 0.98876953125 Q 7.932861328125 0.98876953125 7.975341796875 0.971923828125 Q 8.017822265625 0.955078125 8.0478515625 0.930908203125 L 8.0478515625 0.834228515625 L 7.8720703125 0.834228515625 Q 7.855224609375 0.834228515625 7.839111328125 0.83935546875 Q 7.822998046875 0.844482421875 7.8101806640625 0.85400390625 Q 7.79736328125 0.863525390625 7.7896728515625 0.87744140625 Q 7.781982421875 0.891357421875 7.781982421875 0.90966796875 Q 7.781982421875 0.943359375 7.8065185546875 0.966064453125 Q 7.8310546875 0.98876953125 7.880859375 0.98876953125 M 8.84033203125 0.032958984375 L 9.7236328125 0.032958984375 L 9.7236328125 0.41162109375 L 9.48486328125 0.41162109375 L 9.48486328125 0.254150390625 L 9.199951171875 0.254150390625 L 9.199951171875 0.47314453125 L 9.42041015625 0.47314453125 L 9.42041015625 0.685546875 L 9.199951171875 0.685546875 L 9.199951171875 0.942626953125 L 9.48486328125 0.942626953125 L 9.48486328125 0.74560546875 L 9.7236328125 0.74560546875 L 9.7236328125 1.143310546875 L 8.84033203125 1.143310546875 L 8.84033203125 0.942626953125 L 8.956787109375 0.942626953125 L 8.956787109375 0.254150390625 L 8.84033203125 0.254150390625 L 8.84033203125 0.032958984375 M 10.449462890625 0.706787109375 Q 10.449462890625 0.64306640625 10.415771484375 0.6068115234375 Q 10.382080078125 0.570556640625 10.326416015625 0.570556640625 Q 10.288330078125 0.570556640625 10.24951171875 0.58740234375 Q 10.210693359375 0.604248046875 10.174072265625 0.650390625 L 10.174072265625 0.942626953125 L 10.297119140625 0.942626953125 L 10.297119140625 1.143310546875 L 9.825439453125 1.143310546875 L 9.825439453125 0.942626953125 L 9.936767578125 0.942626953125 L 9.936767578125 0.585205078125 L 9.826904296875 0.585205078125 L 9.826904296875 0.384521484375 L 10.172607421875 0.384521484375 L 10.172607421875 0.451171875 Q 10.22021484375 0.413818359375 10.2791748046875 0.3922119140625 Q 10.338134765625 0.37060546875 10.4033203125 0.37060546875 Q 10.540283203125 0.37060546875 10.6142578125 0.4471435546875 Q 10.688232421875 0.523681640625 10.688232421875 0.6708984375 L 10.688232421875 0.942626953125 L 10.7958984375 0.942626953125 L 10.7958984375 1.143310546875 L 10.449462890625 1.143310546875 L 10.449462890625 0.706787109375 M 11.1796875 0.384521484375 L 11.331298828125 0.384521484375 L 11.331298828125 0.576416015625 L 11.17822265625 0.576416015625 L 11.1767578125 0.897216796875 Q 11.1767578125 0.925048828125 11.18115234375 0.9422607421875 Q 11.185546875 0.95947265625 11.1939697265625 0.9697265625 Q 11.202392578125 0.97998046875 11.214111328125 0.983642578125 Q 11.225830078125 0.9873046875 11.2412109375 0.9873046875 Q 11.26904296875 0.9873046875 11.290283203125 0.9818115234375 Q 11.3115234375 0.976318359375 11.332763671875 0.968994140625 L 11.3642578125 1.1103515625 Q 11.326904296875 1.1337890625 11.2811279296875 1.147705078125 Q 11.2353515625 1.16162109375 11.17236328125 1.16162109375 Q 11.127685546875 1.16162109375 11.0870361328125 1.146240234375 Q 11.04638671875 1.130859375 11.015625 1.0997314453125 Q 10.98486328125 1.068603515625 10.966552734375 1.021728515625 Q 10.9482421875 0.974853515625 10.948974609375 0.91259765625 L 10.951171875 0.576416015625 L 10.842041015625 0.576416015625 L 10.842041015625 0.384521484375 L 10.951904296875 0.384521484375 L 10.953369140625 0.202880859375 L 11.18115234375 0.094482421875 L 11.1796875 0.384521484375 M 12.166259765625 0.66064453125 L 11.96044921875 0.66064453125 L 11.96044921875 0.582275390625 Q 11.930419921875 0.582275390625 11.905517578125 0.5863037109375 Q 11.880615234375 0.59033203125 11.8619384765625 0.599853515625 Q 11.84326171875 0.609375 11.8304443359375 0.626220703125 Q 11.817626953125 0.64306640625 11.8125 0.66796875 L 11.8125 0.942626953125 L 11.967041015625 0.942626953125 L 11.967041015625 1.143310546875 L 11.471923828125 1.143310546875 L 11.471923828125 0.942626953125 L 11.58544921875 0.942626953125 L 11.58544921875 0.585205078125 L 11.473388671875 0.585205078125 L 11.473388671875 0.384521484375 L 11.81103515625 0.384521484375 L 11.81103515625 0.43798828125 Q 11.84326171875 0.412353515625 11.883544921875 0.3984375 Q 11.923828125 0.384521484375 11.971435546875 0.384521484375 Q 12.019775390625 0.384521484375 12.071044921875 0.38525390625 Q 12.122314453125 0.385986328125 12.166259765625 0.385986328125 L 12.166259765625 0.66064453125 M 12.486328125 0.8115234375 L 12.488525390625 0.834228515625 Q 12.49658203125 0.8671875 12.5159912109375 0.89208984375 Q 12.535400390625 0.9169921875 12.561767578125 0.933837890625 Q 12.588134765625 0.95068359375 12.620361328125 0.9591064453125 Q 12.652587890625 0.967529296875 12.685546875 0.967529296875 Q 12.718505859375 0.967529296875 12.7481689453125 0.9635009765625 Q 12.77783203125 0.95947265625 12.8056640625 0.9525146484375 Q 12.83349609375 0.945556640625 12.85986328125 0.9364013671875 Q 12.88623046875 0.92724609375 12.913330078125 0.9169921875 L 12.993896484375 1.067138671875 Q 12.9521484375 1.0927734375 12.9173583984375 1.1107177734375 Q 12.882568359375 1.128662109375 12.847412109375 1.140380859375 Q 12.812255859375 1.152099609375 12.772705078125 1.1575927734375 Q 12.733154296875 1.1630859375 12.680419921875 1.1630859375 Q 12.58154296875 1.1630859375 12.504638671875 1.1304931640625 Q 12.427734375 1.097900390625 12.3753662109375 1.042236328125 Q 12.322998046875 0.986572265625 12.2955322265625 0.911865234375 Q 12.26806640625 0.837158203125 12.26806640625 0.753662109375 Q 12.26806640625 0.670166015625 12.2969970703125 0.596923828125 Q 12.325927734375 0.523681640625 12.378662109375 0.4691162109375 Q 12.431396484375 0.41455078125 12.504638671875 0.383056640625 Q 12.577880859375 0.3515625 12.667236328125 0.3515625 Q 12.756591796875 0.3515625 12.8258056640625 0.3812255859375 Q 12.89501953125 0.410888671875 12.942626953125 0.4632568359375 Q 12.990234375 0.515625 13.015869140625 0.5863037109375 Q 13.04150390625 0.656982421875 13.043701171875 0.73828125 Q 13.0458984375 0.756591796875 13.0462646484375 0.7745361328125 Q 13.046630859375 0.79248046875 13.045166015625 0.8115234375 L 12.486328125 0.8115234375 M 12.661376953125 0.53466796875 Q 12.620361328125 0.53466796875 12.5914306640625 0.5445556640625 Q 12.5625 0.554443359375 12.542724609375 0.5716552734375 Q 12.52294921875 0.5888671875 12.51123046875 0.61083984375 Q 12.49951171875 0.6328125 12.492919921875 0.656982421875 L 12.81005859375 0.656982421875 Q 12.804931640625 0.632080078125 12.79541015625 0.610107421875 Q 12.785888671875 0.588134765625 12.76904296875 0.5712890625 Q 12.752197265625 0.554443359375 12.7261962890625 0.5445556640625 Q 12.7001953125 0.53466796875 12.661376953125 0.53466796875 M 13.18505859375 0.384521484375 L 13.51611328125 0.384521484375 L 13.51611328125 0.3955078125 Q 13.55126953125 0.380126953125 13.587890625 0.3709716796875 Q 13.62451171875 0.36181640625 13.663330078125 0.36181640625 Q 13.746826171875 0.36181640625 13.818603515625 0.393310546875 Q 13.890380859375 0.4248046875 13.943115234375 0.47900390625 Q 13.995849609375 0.533203125 14.0255126953125 0.605712890625 Q 14.05517578125 0.67822265625 14.05517578125 0.759521484375 Q 14.05517578125 0.841552734375 14.0262451171875 0.9140625 Q 13.997314453125 0.986572265625 13.9453125 1.0404052734375 Q 13.893310546875 1.09423828125 13.8211669921875 1.1253662109375 Q 13.7490234375 1.156494140625 13.663330078125 1.156494140625 Q 13.614990234375 1.156494140625 13.5732421875 1.1473388671875 Q 13.531494140625 1.13818359375 13.49267578125 1.121337890625 L 13.49267578125 1.28759765625 L 13.6376953125 1.28759765625 L 13.6376953125 1.48828125 L 13.142578125 1.48828125 L 13.142578125 1.28759765625 L 13.26708984375 1.28759765625 L 13.26708984375 0.585205078125 L 13.18505859375 0.585205078125 L 13.18505859375 0.384521484375 M 13.647216796875 0.56396484375 Q 13.60107421875 0.56396484375 13.560791015625 0.588134765625 Q 13.5205078125 0.6123046875 13.49267578125 0.65625 L 13.49267578125 0.8701171875 Q 13.51611328125 0.907470703125 13.556396484375 0.930908203125 Q 13.5966796875 0.954345703125 13.647216796875 0.954345703125 Q 13.6845703125 0.954345703125 13.71826171875 0.9400634765625 Q 13.751953125 0.92578125 13.77685546875 0.8997802734375 Q 13.8017578125 0.873779296875 13.81640625 0.8382568359375 Q 13.8310546875 0.802734375 13.8310546875 0.760986328125 Q 13.8310546875 0.71484375 13.8167724609375 0.67822265625 Q 13.802490234375 0.6416015625 13.777587890625 0.6163330078125 Q 13.752685546875 0.591064453125 13.718994140625 0.5775146484375 Q 13.685302734375 0.56396484375 13.647216796875 0.56396484375 M 14.845458984375 0.66064453125 L 14.6396484375 0.66064453125 L 14.6396484375 0.582275390625 Q 14.609619140625 0.582275390625 14.584716796875 0.5863037109375 Q 14.559814453125 0.59033203125 14.5411376953125 0.599853515625 Q 14.5224609375 0.609375 14.5096435546875 0.626220703125 Q 14.496826171875 0.64306640625 14.49169921875 0.66796875 L 14.49169921875 0.942626953125 L 14.646240234375 0.942626953125 L 14.646240234375 1.143310546875 L 14.151123046875 1.143310546875 L 14.151123046875 0.942626953125 L 14.2646484375 0.942626953125 L 14.2646484375 0.585205078125 L 14.152587890625 0.585205078125 L 14.152587890625 0.384521484375 L 14.490234375 0.384521484375 L 14.490234375 0.43798828125 Q 14.5224609375 0.412353515625 14.562744140625 0.3984375 Q 14.60302734375 0.384521484375 14.650634765625 0.384521484375 Q 14.698974609375 0.384521484375 14.750244140625 0.38525390625 Q 14.801513671875 0.385986328125 14.845458984375 0.385986328125 L 14.845458984375 0.66064453125 M 15.16552734375 0.8115234375 L 15.167724609375 0.834228515625 Q 15.17578125 0.8671875 15.1951904296875 0.89208984375 Q 15.214599609375 0.9169921875 15.240966796875 0.933837890625 Q 15.267333984375 0.95068359375 15.299560546875 0.9591064453125 Q 15.331787109375 0.967529296875 15.36474609375 0.967529296875 Q 15.397705078125 0.967529296875 15.4273681640625 0.9635009765625 Q 15.45703125 0.95947265625 15.48486328125 0.9525146484375 Q 15.5126953125 0.945556640625 15.5390625 0.9364013671875 Q 15.5654296875 0.92724609375 15.592529296875 0.9169921875 L 15.673095703125 1.067138671875 Q 15.63134765625 1.0927734375 15.5965576171875 1.1107177734375 Q 15.561767578125 1.128662109375 15.526611328125 1.140380859375 Q 15.491455078125 1.152099609375 15.451904296875 1.1575927734375 Q 15.412353515625 1.1630859375 15.359619140625 1.1630859375 Q 15.2607421875 1.1630859375 15.183837890625 1.1304931640625 Q 15.10693359375 1.097900390625 15.0545654296875 1.042236328125 Q 15.002197265625 0.986572265625 14.9747314453125 0.911865234375 Q 14.947265625 0.837158203125 14.947265625 0.753662109375 Q 14.947265625 0.670166015625 14.9761962890625 0.596923828125 Q 15.005126953125 0.523681640625 15.057861328125 0.4691162109375 Q 15.110595703125 0.41455078125 15.183837890625 0.383056640625 Q 15.257080078125 0.3515625 15.346435546875 0.3515625 Q 15.435791015625 0.3515625 15.5050048828125 0.3812255859375 Q 15.57421875 0.410888671875 15.621826171875 0.4632568359375 Q 15.66943359375 0.515625 15.695068359375 0.5863037109375 Q 15.720703125 0.656982421875 15.722900390625 0.73828125 Q 15.72509765625 0.756591796875 15.7254638671875 0.7745361328125 Q 15.725830078125 0.79248046875 15.724365234375 0.8115234375 L 15.16552734375 0.8115234375 M 15.340576171875 0.53466796875 Q 15.299560546875 0.53466796875 15.2706298828125 0.5445556640625 Q 15.24169921875 0.554443359375 15.221923828125 0.5716552734375 Q 15.2021484375 0.5888671875 15.1904296875 0.61083984375 Q 15.1787109375 0.6328125 15.172119140625 0.656982421875 L 15.4892578125 0.656982421875 Q 15.484130859375 0.632080078125 15.474609375 0.610107421875 Q 15.465087890625 0.588134765625 15.4482421875 0.5712890625 Q 15.431396484375 0.554443359375 15.4053955078125 0.5445556640625 Q 15.37939453125 0.53466796875 15.340576171875 0.53466796875 M 16.459716796875 0.706787109375 Q 16.459716796875 0.64306640625 16.426025390625 0.6068115234375 Q 16.392333984375 0.570556640625 16.336669921875 0.570556640625 Q 16.298583984375 0.570556640625 16.259765625 0.58740234375 Q 16.220947265625 0.604248046875 16.184326171875 0.650390625 L 16.184326171875 0.942626953125 L 16.307373046875 0.942626953125 L 16.307373046875 1.143310546875 L 15.835693359375 1.143310546875 L 15.835693359375 0.942626953125 L 15.947021484375 0.942626953125 L 15.947021484375 0.585205078125 L 15.837158203125 0.585205078125 L 15.837158203125 0.384521484375 L 16.182861328125 0.384521484375 L 16.182861328125 0.451171875 Q 16.23046875 0.413818359375 16.2894287109375 0.3922119140625 Q 16.348388671875 0.37060546875 16.41357421875 0.37060546875 Q 16.550537109375 0.37060546875 16.62451171875 0.4471435546875 Q 16.698486328125 0.523681640625 16.698486328125 0.6708984375 L 16.698486328125 0.942626953125 L 16.80615234375 0.942626953125 L 16.80615234375 1.143310546875 L 16.459716796875 1.143310546875 L 16.459716796875 0.706787109375 M 17.1005859375 0.8115234375 L 17.102783203125 0.834228515625 Q 17.11083984375 0.8671875 17.1302490234375 0.89208984375 Q 17.149658203125 0.9169921875 17.176025390625 0.933837890625 Q 17.202392578125 0.95068359375 17.234619140625 0.9591064453125 Q 17.266845703125 0.967529296875 17.2998046875 0.967529296875 Q 17.332763671875 0.967529296875 17.3624267578125 0.9635009765625 Q 17.39208984375 0.95947265625 17.419921875 0.9525146484375 Q 17.44775390625 0.945556640625 17.47412109375 0.9364013671875 Q 17.50048828125 0.92724609375 17.527587890625 0.9169921875 L 17.608154296875 1.067138671875 Q 17.56640625 1.0927734375 17.5316162109375 1.1107177734375 Q 17.496826171875 1.128662109375 17.461669921875 1.140380859375 Q 17.426513671875 1.152099609375 17.386962890625 1.1575927734375 Q 17.347412109375 1.1630859375 17.294677734375 1.1630859375 Q 17.19580078125 1.1630859375 17.118896484375 1.1304931640625 Q 17.0419921875 1.097900390625 16.9896240234375 1.042236328125 Q 16.937255859375 0.986572265625 16.9097900390625 0.911865234375 Q 16.88232421875 0.837158203125 16.88232421875 0.753662109375 Q 16.88232421875 0.670166015625 16.9112548828125 0.596923828125 Q 16.940185546875 0.523681640625 16.992919921875 0.4691162109375 Q 17.045654296875 0.41455078125 17.118896484375 0.383056640625 Q 17.192138671875 0.3515625 17.281494140625 0.3515625 Q 17.370849609375 0.3515625 17.4400634765625 0.3812255859375 Q 17.50927734375 0.410888671875 17.556884765625 0.4632568359375 Q 17.6044921875 0.515625 17.630126953125 0.5863037109375 Q 17.65576171875 0.656982421875 17.657958984375 0.73828125 Q 17.66015625 0.756591796875 17.6605224609375 0.7745361328125 Q 17.660888671875 0.79248046875 17.659423828125 0.8115234375 L 17.1005859375 0.8115234375 M 17.275634765625 0.53466796875 Q 17.234619140625 0.53466796875 17.2056884765625 0.5445556640625 Q 17.1767578125 0.554443359375 17.156982421875 0.5716552734375 Q 17.13720703125 0.5888671875 17.12548828125 0.61083984375 Q 17.11376953125 0.6328125 17.107177734375 0.656982421875 L 17.42431640625 0.656982421875 Q 17.419189453125 0.632080078125 17.40966796875 0.610107421875 Q 17.400146484375 0.588134765625 17.38330078125 0.5712890625 Q 17.366455078125 0.554443359375 17.3404541015625 0.5445556640625 Q 17.314453125 0.53466796875 17.275634765625 0.53466796875 M 18.24169921875 0.384521484375 L 18.6005859375 0.384521484375 L 18.6005859375 0.942626953125 L 18.692138671875 0.942626953125 L 18.692138671875 1.143310546875 L 18.37060546875 1.143310546875 L 18.37060546875 1.078857421875 Q 18.331787109375 1.114013671875 18.27978515625 1.133056640625 Q 18.227783203125 1.152099609375 18.15966796875 1.152099609375 Q 18.0966796875 1.152099609375 18.041015625 1.13232421875 Q 17.9853515625 1.112548828125 17.9439697265625 1.0726318359375 Q 17.902587890625 1.03271484375 17.8787841796875 0.97265625 Q 17.85498046875 0.91259765625 17.85498046875 0.831298828125 L 17.85498046875 0.585205078125 L 17.756103515625 0.585205078125 L 17.756103515625 0.384521484375 L 18.091552734375 0.384521484375 L 18.091552734375 0.831298828125 Q 18.091552734375 0.907470703125 18.13037109375 0.9451904296875 Q 18.169189453125 0.98291015625 18.2314453125 0.98291015625 Q 18.275390625 0.98291015625 18.311279296875 0.955810546875 Q 18.34716796875 0.9287109375 18.36328125 0.882568359375 L 18.36328125 0.585205078125 L 18.24169921875 0.585205078125 L 18.24169921875 0.384521484375 M 19.490478515625 0.66064453125 L 19.28466796875 0.66064453125 L 19.28466796875 0.582275390625 Q 19.254638671875 0.582275390625 19.229736328125 0.5863037109375 Q 19.204833984375 0.59033203125 19.1861572265625 0.599853515625 Q 19.16748046875 0.609375 19.1546630859375 0.626220703125 Q 19.141845703125 0.64306640625 19.13671875 0.66796875 L 19.13671875 0.942626953125 L 19.291259765625 0.942626953125 L 19.291259765625 1.143310546875 L 18.796142578125 1.143310546875 L 18.796142578125 0.942626953125 L 18.90966796875 0.942626953125 L 18.90966796875 0.585205078125 L 18.797607421875 0.585205078125 L 18.797607421875 0.384521484375 L 19.13525390625 0.384521484375 L 19.13525390625 0.43798828125 Q 19.16748046875 0.412353515625 19.207763671875 0.3984375 Q 19.248046875 0.384521484375 19.295654296875 0.384521484375 Q 19.343994140625 0.384521484375 19.395263671875 0.38525390625 Q 19.446533203125 0.385986328125 19.490478515625 0.385986328125 L 19.490478515625 0.66064453125 M 20.0863037109375 0.5830078125 Q 20.074951171875 0.56689453125 20.052978515625 0.5548095703125 Q 20.031005859375 0.542724609375 19.9991455078125 0.535400390625 Q 19.96728515625 0.528076171875 19.927001953125 0.528076171875 Q 19.91162109375 0.528076171875 19.89404296875 0.5306396484375 Q 19.87646484375 0.533203125 19.8614501953125 0.539794921875 Q 19.846435546875 0.54638671875 19.8365478515625 0.5577392578125 Q 19.82666015625 0.569091796875 19.82666015625 0.586669921875 Q 19.82666015625 0.595458984375 19.8292236328125 0.603515625 Q 19.831787109375 0.611572265625 19.839111328125 0.618896484375 Q 19.846435546875 0.626220703125 19.8592529296875 0.6324462890625 Q 19.8720703125 0.638671875 19.892578125 0.642333984375 L 20.0302734375 0.66943359375 Q 20.10498046875 0.68408203125 20.155517578125 0.7060546875 Q 20.2060546875 0.72802734375 20.23681640625 0.75732421875 Q 20.267578125 0.78662109375 20.2811279296875 0.822509765625 Q 20.294677734375 0.8583984375 20.294677734375 0.900146484375 Q 20.294677734375 0.96533203125 20.2642822265625 1.014404296875 Q 20.23388671875 1.0634765625 20.1844482421875 1.0960693359375 Q 20.135009765625 1.128662109375 20.0731201171875 1.1451416015625 Q 20.01123046875 1.16162109375 19.9482421875 1.16162109375 Q 19.9072265625 1.16162109375 19.8739013671875 1.156494140625 Q 19.840576171875 1.1513671875 19.8138427734375 1.142578125 Q 19.787109375 1.1337890625 19.7662353515625 1.1217041015625 Q 19.745361328125 1.109619140625 19.727783203125 1.094970703125 L 19.59521484375 1.094970703125 L 19.59521484375 0.891357421875 L 19.802490234375 0.891357421875 L 19.802490234375 0.895751953125 Q 19.80322265625 0.9169921875 19.815673828125 0.9327392578125 Q 19.828125 0.948486328125 19.8482666015625 0.95947265625 Q 19.868408203125 0.970458984375 19.89404296875 0.9759521484375 Q 19.919677734375 0.9814453125 19.9482421875 0.9814453125 Q 20.01416015625 0.9814453125 20.044189453125 0.9642333984375 Q 20.07421875 0.947021484375 20.07421875 0.919921875 Q 20.07421875 0.898681640625 20.0595703125 0.8836669921875 Q 20.044921875 0.86865234375 20.007568359375 0.85986328125 L 19.866943359375 0.829833984375 Q 19.734375 0.80419921875 19.6669921875 0.7445068359375 Q 19.599609375 0.684814453125 19.599609375 0.591064453125 Q 19.599609375 0.5361328125 19.625244140625 0.4910888671875 Q 19.65087890625 0.446044921875 19.69482421875 0.4141845703125 Q 19.73876953125 0.38232421875 19.7977294921875 0.36474609375 Q 19.856689453125 0.34716796875 19.924072265625 0.34716796875 Q 19.97021484375 0.34716796875 20.006103515625 0.3526611328125 Q 20.0419921875 0.358154296875 20.070556640625 0.366943359375 Q 20.09912109375 0.375732421875 20.1207275390625 0.3878173828125 Q 20.142333984375 0.39990234375 20.1591796875 0.4130859375 L 20.28662109375 0.4130859375 L 20.28662109375 0.61669921875 L 20.09765625 0.61669921875 Q 20.09765625 0.59912109375 20.0863037109375 0.5830078125 M 4.683837890625 1.8117187499999998 L 5.129150390625 1.8117187499999998 L 5.129150390625 2.013134765625 L 5.02734375 2.013134765625 L 5.02734375 2.473828125 Q 5.02734375 2.53681640625 5.0416259765625 2.58076171875 Q 5.055908203125 2.62470703125 5.08154296875 2.6525390625 Q 5.107177734375 2.68037109375 5.142333984375 2.6931884765625 Q 5.177490234375 2.706005859375 5.21923828125 2.706005859375 Q 5.262451171875 2.706005859375 5.2979736328125 2.69501953125 Q 5.33349609375 2.684033203125 5.3587646484375 2.6572998046875 Q 5.384033203125 2.63056640625 5.3975830078125 2.585888671875 Q 5.4111328125 2.5412109375 5.4111328125 2.473828125 L 5.4111328125 2.013134765625 L 5.293212890625 2.013134765625 L 5.293212890625 1.8117187499999998 L 5.738525390625 1.8117187499999998 L 5.738525390625 2.013134765625 L 5.64990234375 2.013134765625 L 5.64990234375 2.445263671875 Q 5.64990234375 2.562451171875 5.6162109375 2.6536376953125 Q 5.58251953125 2.74482421875 5.5235595703125 2.8078125 Q 5.464599609375 2.87080078125 5.3851318359375 2.903759765625 Q 5.3056640625 2.93671875 5.21484375 2.93671875 Q 5.124755859375 2.93671875 5.04638671875 2.9041259765625 Q 4.968017578125 2.871533203125 4.9097900390625 2.8096435546875 Q 4.8515625 2.74775390625 4.81787109375 2.659130859375 Q 4.7841796875 2.5705078125 4.7841796875 2.458447265625 L 4.7841796875 2.013134765625 L 4.683837890625 2.013134765625 L 4.683837890625 1.8117187499999998 M 6.470947265625 2.485546875 Q 6.470947265625 2.421826171875 6.437255859375 2.3855712890625 Q 6.403564453125 2.34931640625 6.347900390625 2.34931640625 Q 6.309814453125 2.34931640625 6.27099609375 2.366162109375 Q 6.232177734375 2.3830078125 6.195556640625 2.429150390625 L 6.195556640625 2.72138671875 L 6.318603515625 2.72138671875 L 6.318603515625 2.9220703125 L 5.846923828125 2.9220703125 L 5.846923828125 2.72138671875 L 5.958251953125 2.72138671875 L 5.958251953125 2.36396484375 L 5.848388671875 2.36396484375 L 5.848388671875 2.16328125 L 6.194091796875 2.16328125 L 6.194091796875 2.229931640625 Q 6.24169921875 2.192578125 6.3006591796875 2.1709716796875 Q 6.359619140625 2.149365234375 6.4248046875 2.149365234375 Q 6.561767578125 2.149365234375 6.6357421875 2.2259033203125 Q 6.709716796875 2.30244140625 6.709716796875 2.449658203125 L 6.709716796875 2.72138671875 L 6.8173828125 2.72138671875 L 6.8173828125 2.9220703125 L 6.470947265625 2.9220703125 L 6.470947265625 2.485546875 M 6.914794921875 2.16328125 L 7.25537109375 2.16328125 L 7.25537109375 2.72138671875 L 7.36083984375 2.72138671875 L 7.36083984375 2.9220703125 L 6.914794921875 2.9220703125 L 6.914794921875 2.72138671875 L 7.029052734375 2.72138671875 L 7.029052734375 2.36396484375 L 6.914794921875 2.36396484375 L 6.914794921875 2.16328125 M 7.017333984375 1.9186523437499998 Q 7.017333984375 1.8915527343749998 7.0272216796875 1.8677490234374998 Q 7.037109375 1.8439453124999998 7.0546875 1.8263671874999998 Q 7.072265625 1.8087890624999998 7.0960693359375 1.7985351562499998 Q 7.119873046875 1.7882812499999998 7.147705078125 1.7882812499999998 Q 7.174072265625 1.7882812499999998 7.197509765625 1.7985351562499998 Q 7.220947265625 1.8087890624999998 7.238525390625 1.8263671874999998 Q 7.256103515625 1.8439453124999998 7.266357421875 1.8677490234374998 Q 7.276611328125 1.8915527343749998 7.276611328125 1.9186523437499998 Q 7.276611328125 1.9457519531249998 7.266357421875 1.9695556640624998 Q 7.256103515625 1.9933593749999998 7.238525390625 2.0109375 Q 7.220947265625 2.028515625 7.197509765625 2.03876953125 Q 7.174072265625 2.0490234375 7.147705078125 2.0490234375 Q 7.119873046875 2.0490234375 7.0960693359375 2.03876953125 Q 7.072265625 2.028515625 7.0546875 2.0109375 Q 7.037109375 1.9933593749999998 7.0272216796875 1.9695556640624998 Q 7.017333984375 1.9457519531249998 7.017333984375 1.9186523437499998 M 7.7783203125 2.16328125 L 7.929931640625 2.16328125 L 7.929931640625 2.35517578125 L 7.77685546875 2.35517578125 L 7.775390625 2.6759765625 Q 7.775390625 2.70380859375 7.77978515625 2.7210205078125 Q 7.7841796875 2.738232421875 7.7926025390625 2.748486328125 Q 7.801025390625 2.758740234375 7.812744140625 2.76240234375 Q 7.824462890625 2.766064453125 7.83984375 2.766064453125 Q 7.86767578125 2.766064453125 7.888916015625 2.7605712890625 Q 7.91015625 2.755078125 7.931396484375 2.74775390625 L 7.962890625 2.889111328125 Q 7.925537109375 2.912548828125 7.8797607421875 2.92646484375 Q 7.833984375 2.940380859375 7.77099609375 2.940380859375 Q 7.726318359375 2.940380859375 7.6856689453125 2.925 Q 7.64501953125 2.909619140625 7.6142578125 2.8784912109375 Q 7.58349609375 2.84736328125 7.565185546875 2.80048828125 Q 7.546875 2.75361328125 7.547607421875 2.691357421875 L 7.5498046875 2.35517578125 L 7.440673828125 2.35517578125 L 7.440673828125 2.16328125 L 7.550537109375 2.16328125 L 7.552001953125 1.9816406249999998 L 7.77978515625 1.8732421874999998 L 7.7783203125 2.16328125 M 8.5491943359375 2.361767578125 Q 8.537841796875 2.345654296875 8.515869140625 2.3335693359375 Q 8.493896484375 2.321484375 8.4620361328125 2.31416015625 Q 8.43017578125 2.3068359375 8.389892578125 2.3068359375 Q 8.37451171875 2.3068359375 8.35693359375 2.3093994140625 Q 8.33935546875 2.311962890625 8.3243408203125 2.3185546875 Q 8.309326171875 2.325146484375 8.2994384765625 2.3364990234375 Q 8.28955078125 2.3478515625 8.28955078125 2.3654296875 Q 8.28955078125 2.37421875 8.2921142578125 2.382275390625 Q 8.294677734375 2.39033203125 8.302001953125 2.39765625 Q 8.309326171875 2.40498046875 8.3221435546875 2.4112060546875 Q 8.3349609375 2.417431640625 8.35546875 2.42109375 L 8.4931640625 2.448193359375 Q 8.56787109375 2.462841796875 8.618408203125 2.484814453125 Q 8.6689453125 2.506787109375 8.69970703125 2.536083984375 Q 8.73046875 2.565380859375 8.7440185546875 2.60126953125 Q 8.757568359375 2.637158203125 8.757568359375 2.67890625 Q 8.757568359375 2.744091796875 8.7271728515625 2.7931640625 Q 8.69677734375 2.842236328125 8.6473388671875 2.8748291015625 Q 8.597900390625 2.907421875 8.5360107421875 2.9239013671875 Q 8.47412109375 2.940380859375 8.4111328125 2.940380859375 Q 8.3701171875 2.940380859375 8.3367919921875 2.93525390625 Q 8.303466796875 2.930126953125 8.2767333984375 2.921337890625 Q 8.25 2.912548828125 8.2291259765625 2.9004638671875 Q 8.208251953125 2.88837890625 8.190673828125 2.87373046875 L 8.05810546875 2.87373046875 L 8.05810546875 2.6701171875 L 8.265380859375 2.6701171875 L 8.265380859375 2.67451171875 Q 8.26611328125 2.695751953125 8.278564453125 2.7114990234375 Q 8.291015625 2.72724609375 8.3111572265625 2.738232421875 Q 8.331298828125 2.74921875 8.35693359375 2.7547119140625 Q 8.382568359375 2.760205078125 8.4111328125 2.760205078125 Q 8.47705078125 2.760205078125 8.507080078125 2.7429931640625 Q 8.537109375 2.72578125 8.537109375 2.698681640625 Q 8.537109375 2.67744140625 8.5224609375 2.6624267578125 Q 8.5078125 2.647412109375 8.470458984375 2.638623046875 L 8.329833984375 2.60859375 Q 8.197265625 2.582958984375 8.1298828125 2.5232666015625 Q 8.0625 2.46357421875 8.0625 2.36982421875 Q 8.0625 2.314892578125 8.088134765625 2.2698486328125 Q 8.11376953125 2.2248046875 8.15771484375 2.1929443359375 Q 8.20166015625 2.161083984375 8.2606201171875 2.143505859375 Q 8.319580078125 2.125927734375 8.386962890625 2.125927734375 Q 8.43310546875 2.125927734375 8.468994140625 2.1314208984375 Q 8.5048828125 2.1369140625 8.533447265625 2.145703125 Q 8.56201171875 2.1544921875 8.5836181640625 2.1665771484375 Q 8.605224609375 2.178662109375 8.6220703125 2.191845703125 L 8.74951171875 2.191845703125 L 8.74951171875 2.395458984375 L 8.560546875 2.395458984375 Q 8.560546875 2.377880859375 8.5491943359375 2.361767578125 M 9.205078125 1.8117187499999998 L 9.7177734375 1.8117187499999998 Q 9.803466796875 1.8117187499999998 9.875244140625 1.8384521484374998 Q 9.947021484375 1.8651855468749998 9.9990234375 1.9105957031249998 Q 10.051025390625 1.9560058593749998 10.080322265625 2.01533203125 Q 10.109619140625 2.074658203125 10.109619140625 2.139111328125 Q 10.109619140625 2.216748046875 10.0865478515625 2.2844970703125 Q 10.0634765625 2.35224609375 10.01513671875 2.40205078125 Q 9.966796875 2.45185546875 9.892822265625 2.4807861328125 Q 9.81884765625 2.509716796875 9.7177734375 2.509716796875 L 9.563232421875 2.509716796875 L 9.563232421875 2.72138671875 L 9.6650390625 2.72138671875 L 9.6650390625 2.9220703125 L 9.205078125 2.9220703125 L 9.205078125 2.72138671875 L 9.320068359375 2.72138671875 L 9.320068359375 2.013134765625 L 9.205078125 2.013134765625 L 9.205078125 1.8117187499999998 M 9.563232421875 2.013134765625 L 9.563232421875 2.31123046875 L 9.66357421875 2.31123046875 Q 9.7470703125 2.31123046875 9.796142578125 2.27607421875 Q 9.84521484375 2.24091796875 9.84521484375 2.16474609375 Q 9.84521484375 2.093701171875 9.799072265625 2.05341796875 Q 9.7529296875 2.013134765625 9.66357421875 2.013134765625 L 9.563232421875 2.013134765625 M 10.776123046875 1.8117187499999998 L 11.25146484375 1.8117187499999998 L 11.25146484375 2.013134765625 L 11.152587890625 2.013134765625 L 10.85595703125 2.9220703125 L 10.5556640625 2.9220703125 L 10.267822265625 2.013134765625 L 10.160888671875 2.013134765625 L 10.160888671875 1.8117187499999998 L 10.636962890625 1.8117187499999998 L 10.636962890625 2.013134765625 L 10.518310546875 2.013134765625 L 10.711669921875 2.643017578125 L 10.904296875 2.013134765625 L 10.776123046875 2.013134765625 L 10.776123046875 1.8117187499999998 M 11.53857421875 2.72138671875 L 11.653564453125 2.72138671875 L 11.653564453125 2.005810546875 L 11.518798828125 2.005810546875 L 11.518798828125 2.149365234375 L 11.280029296875 2.149365234375 L 11.280029296875 1.8117187499999998 L 12.2900390625 1.8117187499999998 L 12.2900390625 2.149365234375 L 12.0498046875 2.149365234375 L 12.0498046875 2.005810546875 L 11.896728515625 2.005810546875 L 11.896728515625 2.72138671875 L 12.013916015625 2.72138671875 L 12.013916015625 2.9220703125 L 11.53857421875 2.9220703125 L 11.53857421875 2.72138671875 M 12.69287109375 1.8117187499999998 L 13.168212890625 1.8117187499999998 L 13.168212890625 2.013134765625 L 13.051025390625 2.013134765625 L 13.051025390625 2.72138671875 L 13.292724609375 2.72138671875 Q 13.30224609375 2.72138671875 13.3114013671875 2.7158935546875 Q 13.320556640625 2.710400390625 13.3275146484375 2.701611328125 Q 13.33447265625 2.692822265625 13.3388671875 2.682568359375 Q 13.34326171875 2.672314453125 13.34326171875 2.66279296875 L 13.34326171875 2.514111328125 L 13.58056640625 2.514111328125 L 13.58056640625 2.9220703125 L 12.69287109375 2.9220703125 L 12.69287109375 2.72138671875 L 12.807861328125 2.72138671875 L 12.807861328125 2.013134765625 L 12.69287109375 2.013134765625 L 12.69287109375 1.8117187499999998 M 13.86767578125 2.72138671875 L 13.982666015625 2.72138671875 L 13.982666015625 2.005810546875 L 13.847900390625 2.005810546875 L 13.847900390625 2.149365234375 L 13.609130859375 2.149365234375 L 13.609130859375 1.8117187499999998 L 14.619140625 1.8117187499999998 L 14.619140625 2.149365234375 L 14.37890625 2.149365234375 L 14.37890625 2.005810546875 L 14.225830078125 2.005810546875 L 14.225830078125 2.72138671875 L 14.343017578125 2.72138671875 L 14.343017578125 2.9220703125 L 13.86767578125 2.9220703125 L 13.86767578125 2.72138671875 M 14.700439453125 1.8117187499999998 L 15.126708984375 1.8117187499999998 Q 15.202880859375 1.8117187499999998 15.2728271484375 1.8314941406249998 Q 15.3427734375 1.8512695312499998 15.4031982421875 1.8871582031249998 Q 15.463623046875 1.9230468749999998 15.5130615234375 1.9732177734374998 Q 15.5625 2.023388671875 15.59765625 2.084912109375 Q 15.6328125 2.146435546875 15.65185546875 2.21748046875 Q 15.6708984375 2.288525390625 15.6708984375 2.3654296875 Q 15.6708984375 2.442333984375 15.65185546875 2.51337890625 Q 15.6328125 2.584423828125 15.59765625 2.6463134765625 Q 15.5625 2.708203125 15.5130615234375 2.7591064453125 Q 15.463623046875 2.810009765625 15.4031982421875 2.8462646484375 Q 15.3427734375 2.88251953125 15.2728271484375 2.902294921875 Q 15.202880859375 2.9220703125 15.126708984375 2.9220703125 L 14.700439453125 2.9220703125 L 14.700439453125 2.72138671875 L 14.7890625 2.72138671875 L 14.7890625 2.013134765625 L 14.700439453125 2.013134765625 L 14.700439453125 1.8117187499999998 M 15.0322265625 2.013134765625 L 15.0322265625 2.72138671875 L 15.125244140625 2.72138671875 Q 15.1845703125 2.72138671875 15.2373046875 2.6935546875 Q 15.2900390625 2.66572265625 15.328857421875 2.6177490234375 Q 15.36767578125 2.569775390625 15.390380859375 2.5049560546875 Q 15.4130859375 2.44013671875 15.4130859375 2.3654296875 Q 15.4130859375 2.291455078125 15.390380859375 2.227001953125 Q 15.36767578125 2.162548828125 15.328857421875 2.11494140625 Q 15.2900390625 2.067333984375 15.2373046875 2.040234375 Q 15.1845703125 2.013134765625 15.125244140625 2.013134765625 L 15.0322265625 2.013134765625" fill="#ffffff" fill-rule="nonzero"></path></g><g><path d=" M 7.11431884765625 3.4143164062499998 Q 7.0938720703125 3.3795263671874998 7.060150146484375 3.3596899414062498 Q 7.02642822265625 3.3398535156249998 6.98492431640625 3.3398535156249998 Q 6.94952392578125 3.3398535156249998 6.92022705078125 3.3548071289062498 Q 6.89093017578125 3.3697607421874998 6.870025634765625 3.3949377441406248 Q 6.84912109375 3.4201147460937498 6.8375244140625 3.4532263183593748 Q 6.825927734375 3.4863378906249998 6.825927734375 3.5229589843749998 Q 6.825927734375 3.5662939453124998 6.8387451171875 3.5997106933593748 Q 6.8515625 3.6331274414062498 6.872161865234375 3.6552526855468748 Q 6.89276123046875 3.6773779296874998 6.921142578125 3.6921789550781248 Q 6.94952392578125 3.7069799804687498 6.98492431640625 3.7069799804687498 Q 7.03314208984375 3.7069799804687498 7.06884765625 3.6836340332031248 Q 7.10455322265625 3.6602880859374998 7.1298828125 3.6068823242187498 L 7.18359375 3.6322119140624998 Q 7.1719970703125 3.6651708984374998 7.14422607421875 3.6958410644531248 Q 7.116455078125 3.7265112304687498 7.075714111328125 3.7452795410156248 Q 7.03497314453125 3.7640478515624998 6.98553466796875 3.7640478515624998 Q 6.938232421875 3.7640478515624998 6.8985595703125 3.7461950683593748 Q 6.85888671875 3.7283422851562498 6.827911376953125 3.6953833007812498 Q 6.79693603515625 3.6624243164062498 6.780609130859375 3.6172583007812498 Q 6.7642822265625 3.5720922851562498 6.7642822265625 3.5229589843749998 Q 6.7642822265625 3.4735205078124998 6.780609130859375 3.4295751953124998 Q 6.79693603515625 3.3856298828124998 6.826385498046875 3.3531286621093748 Q 6.8558349609375 3.3206274414062498 6.896575927734375 3.3018591308593748 Q 6.93731689453125 3.2830908203124998 6.98492431640625 3.2830908203124998 Q 7.02734375 3.2830908203124998 7.05816650390625 3.2951452636718748 Q 7.0889892578125 3.3071997070312498 7.110504150390625 3.3238317871093748 Q 7.13201904296875 3.3404638671874998 7.1475830078125 3.3599951171874998 L 7.179931640625 3.3599951171874998 L 7.179931640625 3.4143164062499998 L 7.11431884765625 3.4143164062499998 M 7.229827880859375 3.5968115234374998 Q 7.230133056640625 3.5592749023437498 7.24188232421875 3.5284521484374998 Q 7.253631591796875 3.4976293945312498 7.274688720703125 3.4755041503906248 Q 7.295745849609375 3.4533789062499998 7.324737548828125 3.4414770507812498 Q 7.353729248046875 3.4295751953124998 7.388519287109375 3.4295751953124998 Q 7.423614501953125 3.4295751953124998 7.4527587890625 3.4414770507812498 Q 7.481903076171875 3.4533789062499998 7.502655029296875 3.4751989746093748 Q 7.523406982421875 3.4970190429687498 7.535003662109375 3.5278417968749998 Q 7.546600341796875 3.5586645507812498 7.546600341796875 3.5962011718749998 Q 7.546600341796875 3.6331274414062498 7.535003662109375 3.6641027832031248 Q 7.523406982421875 3.6950781249999998 7.502655029296875 3.7173559570312498 Q 7.481903076171875 3.7396337890624998 7.4527587890625 3.7519934082031248 Q 7.423614501953125 3.7643530273437498 7.388519287109375 3.7643530273437498 Q 7.352813720703125 3.7643530273437498 7.323822021484375 3.7521459960937498 Q 7.294830322265625 3.7399389648437498 7.274078369140625 3.7178137207031248 Q 7.253326416015625 3.6956884765624998 7.241729736328125 3.6648657226562498 Q 7.230133056640625 3.6340429687499998 7.229827880859375 3.5968115234374998 M 7.289947509765625 3.5968115234374998 Q 7.289947509765625 3.6239721679687498 7.2977294921875 3.6459448242187498 Q 7.305511474609375 3.6679174804687498 7.319091796875 3.6833288574218748 Q 7.332672119140625 3.6987402343749998 7.35052490234375 3.7071325683593748 Q 7.368377685546875 3.7155249023437498 7.388519287109375 3.7155249023437498 Q 7.409576416015625 3.7155249023437498 7.427734375 3.7072851562499998 Q 7.445892333984375 3.6990454101562498 7.459320068359375 3.6836340332031248 Q 7.472747802734375 3.6682226562499998 7.480377197265625 3.6462499999999998 Q 7.488006591796875 3.6242773437499998 7.488006591796875 3.5968115234374998 Q 7.488006591796875 3.5681249999999998 7.480377197265625 3.5458471679687498 Q 7.472747802734375 3.5235693359374998 7.45947265625 3.5086157226562498 Q 7.446197509765625 3.4936621093749998 7.427886962890625 3.4860327148437498 Q 7.409576416015625 3.4784033203124998 7.388519287109375 3.4784033203124998 Q 7.368377685546875 3.4784033203124998 7.35052490234375 3.4860327148437498 Q 7.332672119140625 3.4936621093749998 7.319091796875 3.5086157226562498 Q 7.305511474609375 3.5235693359374998 7.2977294921875 3.5458471679687498 Q 7.289947509765625 3.5681249999999998 7.289947509765625 3.5968115234374998 M 7.81683349609375 3.7024023437499998 L 7.86138916015625 3.7024023437499998 L 7.86138916015625 3.5580541992187498 Q 7.86138916015625 3.5217382812499998 7.842926025390625 3.5029699707031248 Q 7.824462890625 3.4842016601562498 7.78997802734375 3.4842016601562498 Q 7.7701416015625 3.4842016601562498 7.75 3.4936621093749998 Q 7.7298583984375 3.5031225585937498 7.71185302734375 3.5171606445312498 L 7.71185302734375 3.7024023437499998 L 7.75640869140625 3.7024023437499998 L 7.75640869140625 3.7548925781249998 L 7.60870361328125 3.7548925781249998 L 7.60870361328125 3.7024023437499998 L 7.65264892578125 3.7024023437499998 L 7.65264892578125 3.4912207031249998 L 7.60870361328125 3.4912207031249998 L 7.60870361328125 3.4387304687499998 L 7.70941162109375 3.4387304687499998 L 7.70941162109375 3.4759619140624998 L 7.71002197265625 3.4759619140624998 Q 7.7200927734375 3.4671118164062498 7.731536865234375 3.4591772460937498 Q 7.74298095703125 3.4512426757812498 7.7554931640625 3.4454443359374998 Q 7.76800537109375 3.4396459960937498 7.781585693359375 3.4362890624999998 Q 7.795166015625 3.4329321289062498 7.81011962890625 3.4329321289062498 Q 7.83544921875 3.4329321289062498 7.85589599609375 3.4399511718749998 Q 7.8763427734375 3.4469702148437498 7.89068603515625 3.4613134765624998 Q 7.905029296875 3.4756567382812498 7.912811279296875 3.4980871582031248 Q 7.92059326171875 3.5205175781249998 7.92059326171875 3.5510351562499998 L 7.92059326171875 3.7024023437499998 L 7.96453857421875 3.7024023437499998 L 7.96453857421875 3.7548925781249998 L 7.81683349609375 3.7548925781249998 L 7.81683349609375 3.7024023437499998 M 8.234466552734375 3.7024023437499998 L 8.279022216796875 3.7024023437499998 L 8.279022216796875 3.5580541992187498 Q 8.279022216796875 3.5217382812499998 8.26055908203125 3.5029699707031248 Q 8.242095947265625 3.4842016601562498 8.207611083984375 3.4842016601562498 Q 8.187774658203125 3.4842016601562498 8.167633056640625 3.4936621093749998 Q 8.147491455078125 3.5031225585937498 8.129486083984375 3.5171606445312498 L 8.129486083984375 3.7024023437499998 L 8.174041748046875 3.7024023437499998 L 8.174041748046875 3.7548925781249998 L 8.026336669921875 3.7548925781249998 L 8.026336669921875 3.7024023437499998 L 8.070281982421875 3.7024023437499998 L 8.070281982421875 3.4912207031249998 L 8.026336669921875 3.4912207031249998 L 8.026336669921875 3.4387304687499998 L 8.127044677734375 3.4387304687499998 L 8.127044677734375 3.4759619140624998 L 8.127655029296875 3.4759619140624998 Q 8.137725830078125 3.4671118164062498 8.149169921875 3.4591772460937498 Q 8.160614013671875 3.4512426757812498 8.173126220703125 3.4454443359374998 Q 8.185638427734375 3.4396459960937498 8.19921875 3.4362890624999998 Q 8.212799072265625 3.4329321289062498 8.227752685546875 3.4329321289062498 Q 8.253082275390625 3.4329321289062498 8.273529052734375 3.4399511718749998 Q 8.293975830078125 3.4469702148437498 8.308319091796875 3.4613134765624998 Q 8.322662353515625 3.4756567382812498 8.3304443359375 3.4980871582031248 Q 8.338226318359375 3.5205175781249998 8.338226318359375 3.5510351562499998 L 8.338226318359375 3.7024023437499998 L 8.382171630859375 3.7024023437499998 L 8.382171630859375 3.7548925781249998 L 8.234466552734375 3.7548925781249998 L 8.234466552734375 3.7024023437499998 M 8.4976806640625 3.6041357421874998 Q 8.4976806640625 3.6175634765624998 8.499664306640625 3.6287023925781248 Q 8.50164794921875 3.6398413085937498 8.50531005859375 3.6499121093749998 Q 8.5166015625 3.6804296874999998 8.541473388671875 3.6958410644531248 Q 8.56634521484375 3.7112524414062498 8.5977783203125 3.7112524414062498 Q 8.62249755859375 3.7112524414062498 8.645843505859375 3.7043859863281248 Q 8.669189453125 3.6975195312499998 8.69482421875 3.6828710937499998 L 8.71771240234375 3.7216284179687498 Q 8.68658447265625 3.7429907226562498 8.6551513671875 3.7533666992187498 Q 8.62371826171875 3.7637426757812498 8.58984375 3.7637426757812498 Q 8.55780029296875 3.7637426757812498 8.530487060546875 3.7530615234374998 Q 8.503173828125 3.7423803710937498 8.483489990234375 3.7213232421874998 Q 8.46380615234375 3.7002661132812498 8.452667236328125 3.6688330078124998 Q 8.4415283203125 3.6373999023437498 8.4415283203125 3.5955908203124998 Q 8.4415283203125 3.5617163085937498 8.45098876953125 3.5316564941406248 Q 8.46044921875 3.5015966796874998 8.479217529296875 3.4791662597656248 Q 8.49798583984375 3.4567358398437498 8.5257568359375 3.4436132812499998 Q 8.55352783203125 3.4304907226562498 8.5904541015625 3.4304907226562498 Q 8.62615966796875 3.4304907226562498 8.650115966796875 3.4413244628906248 Q 8.674072265625 3.4521582031249998 8.689178466796875 3.4700109863281248 Q 8.70428466796875 3.4878637695312498 8.712066650390625 3.5107519531249998 Q 8.7198486328125 3.5336401367187498 8.722900390625 3.5574438476562498 Q 8.72442626953125 3.5690405273437498 8.724884033203125 3.5809423828124998 Q 8.725341796875 3.5928442382812498 8.725341796875 3.6041357421874998 L 8.4976806640625 3.6041357421874998 M 8.58648681640625 3.4780981445312498 Q 8.566650390625 3.4780981445312498 8.551849365234375 3.4837438964843748 Q 8.53704833984375 3.4893896484374998 8.52667236328125 3.4999182128906248 Q 8.51629638671875 3.5104467773437498 8.510040283203125 3.5257055664062498 Q 8.5037841796875 3.5409643554687498 8.500732421875 3.5598852539062498 L 8.66461181640625 3.5598852539062498 Q 8.66339111328125 3.5421850585937498 8.658966064453125 3.5272314453124998 Q 8.654541015625 3.5122778320312498 8.6453857421875 3.5012915039062498 Q 8.63623046875 3.4903051757812498 8.62188720703125 3.4842016601562498 Q 8.6075439453125 3.4780981445312498 8.58648681640625 3.4780981445312498 M 9.031585693359375 3.5229589843749998 Q 9.018768310546875 3.5000708007812498 8.99908447265625 3.4893896484374998 Q 8.979400634765625 3.4787084960937498 8.953460693359375 3.4787084960937498 Q 8.933624267578125 3.4787084960937498 8.916229248046875 3.4869482421874998 Q 8.898834228515625 3.4951879882812498 8.8858642578125 3.5104467773437498 Q 8.872894287109375 3.5257055664062498 8.86541748046875 3.5475256347656248 Q 8.857940673828125 3.5693457031249998 8.857940673828125 3.5962011718749998 Q 8.857940673828125 3.6227514648437498 8.86541748046875 3.6441137695312498 Q 8.872894287109375 3.6654760742187498 8.886016845703125 3.6805822753906248 Q 8.899139404296875 3.6956884765624998 8.9163818359375 3.7037756347656248 Q 8.933624267578125 3.7118627929687498 8.953460693359375 3.7118627929687498 Q 8.982757568359375 3.7118627929687498 9.004425048828125 3.6976721191406248 Q 9.026092529296875 3.6834814453124998 9.038909912109375 3.6560156249999998 L 9.085906982421875 3.6792089843749998 Q 9.076751708984375 3.6987402343749998 9.063323974609375 3.7143041992187498 Q 9.049896240234375 3.7298681640624998 9.032958984375 3.7408544921874998 Q 9.016021728515625 3.7518408203124998 8.9957275390625 3.7577917480468748 Q 8.975433349609375 3.7637426757812498 8.952850341796875 3.7637426757812498 Q 8.919891357421875 3.7637426757812498 8.8919677734375 3.7513830566406248 Q 8.864044189453125 3.7390234374999998 8.84375 3.7167456054687498 Q 8.823455810546875 3.6944677734374998 8.812164306640625 3.6636450195312498 Q 8.800872802734375 3.6328222656249998 8.800872802734375 3.5962011718749998 Q 8.800872802734375 3.5595800781249998 8.812774658203125 3.5287573242187498 Q 8.824676513671875 3.4979345703124998 8.845428466796875 3.4758093261718748 Q 8.866180419921875 3.4536840820312498 8.893951416015625 3.4411718749999998 Q 8.921722412109375 3.4286596679687498 8.953460693359375 3.4286596679687498 Q 8.983367919921875 3.4286596679687498 9.01007080078125 3.4390356445312498 Q 9.036773681640625 3.4494116210937498 9.056915283203125 3.4704687499999998 L 9.088958740234375 3.4704687499999998 L 9.088958740234375 3.5229589843749998 L 9.031585693359375 3.5229589843749998 M 9.23681640625 3.4387304687499998 L 9.31097412109375 3.4387304687499998 L 9.31097412109375 3.4848120117187498 L 9.2362060546875 3.4848120117187498 L 9.23529052734375 3.6673071289062498 Q 9.23529052734375 3.6859228515624998 9.23956298828125 3.6975195312499998 Q 9.24383544921875 3.7091162109374998 9.2532958984375 3.7135412597656248 Q 9.26275634765625 3.7179663085937498 9.274658203125 3.7179663085937498 Q 9.2874755859375 3.7179663085937498 9.2972412109375 3.7156774902343748 Q 9.3070068359375 3.7133886718749998 9.318603515625 3.7078955078124998 L 9.33172607421875 3.7460424804687498 Q 9.31707763671875 3.7536718749999998 9.3009033203125 3.7580969238281248 Q 9.28472900390625 3.7625219726562498 9.26275634765625 3.7625219726562498 Q 9.24200439453125 3.7625219726562498 9.226593017578125 3.7574865722656248 Q 9.211181640625 3.7524511718749998 9.200653076171875 3.7405493164062498 Q 9.19012451171875 3.7286474609374998 9.1849365234375 3.7086584472656248 Q 9.17974853515625 3.6886694335937498 9.17974853515625 3.6587622070312498 L 9.1806640625 3.4848120117187498 L 9.13031005859375 3.4848120117187498 L 9.13031005859375 3.4387304687499998 L 9.1812744140625 3.4387304687499998 L 9.1812744140625 3.3630468749999998 L 9.23681640625 3.3368017578124998 L 9.23681640625 3.4387304687499998 M 9.376129150390625 3.4387304687499998 L 9.479278564453125 3.4387304687499998 L 9.479278564453125 3.7024023437499998 L 9.526885986328125 3.7024023437499998 L 9.526885986328125 3.7548925781249998 L 9.376739501953125 3.7548925781249998 L 9.376739501953125 3.7024023437499998 L 9.421905517578125 3.7024023437499998 L 9.421905517578125 3.4912207031249998 L 9.376129150390625 3.4912207031249998 L 9.376129150390625 3.4387304687499998 M 9.411224365234375 3.3267309570312498 Q 9.411224365234375 3.3187963867187498 9.4144287109375 3.3116247558593748 Q 9.417633056640625 3.3044531249999998 9.4229736328125 3.2991125488281248 Q 9.428314208984375 3.2937719726562498 9.435638427734375 3.2905676269531248 Q 9.442962646484375 3.2873632812499998 9.451202392578125 3.2873632812499998 Q 9.459136962890625 3.2873632812499998 9.46630859375 3.2905676269531248 Q 9.473480224609375 3.2937719726562498 9.47882080078125 3.2991125488281248 Q 9.484161376953125 3.3044531249999998 9.48736572265625 3.3116247558593748 Q 9.490570068359375 3.3187963867187498 9.490570068359375 3.3267309570312498 Q 9.490570068359375 3.3349707031249998 9.48736572265625 3.3422949218749998 Q 9.484161376953125 3.3496191406249998 9.47882080078125 3.3552648925781248 Q 9.473480224609375 3.3609106445312498 9.46630859375 3.3641149902343748 Q 9.459136962890625 3.3673193359374998 9.451202392578125 3.3673193359374998 Q 9.442962646484375 3.3673193359374998 9.435638427734375 3.3641149902343748 Q 9.428314208984375 3.3609106445312498 9.4229736328125 3.3552648925781248 Q 9.417633056640625 3.3496191406249998 9.4144287109375 3.3422949218749998 Q 9.411224365234375 3.3349707031249998 9.411224365234375 3.3267309570312498 M 9.7879638671875 3.7024023437499998 L 9.83251953125 3.7024023437499998 L 9.83251953125 3.5580541992187498 Q 9.83251953125 3.5217382812499998 9.814056396484375 3.5029699707031248 Q 9.79559326171875 3.4842016601562498 9.7611083984375 3.4842016601562498 Q 9.74127197265625 3.4842016601562498 9.72113037109375 3.4936621093749998 Q 9.70098876953125 3.5031225585937498 9.6829833984375 3.5171606445312498 L 9.6829833984375 3.7024023437499998 L 9.7275390625 3.7024023437499998 L 9.7275390625 3.7548925781249998 L 9.579833984375 3.7548925781249998 L 9.579833984375 3.7024023437499998 L 9.623779296875 3.7024023437499998 L 9.623779296875 3.4912207031249998 L 9.579833984375 3.4912207031249998 L 9.579833984375 3.4387304687499998 L 9.6805419921875 3.4387304687499998 L 9.6805419921875 3.4759619140624998 L 9.68115234375 3.4759619140624998 Q 9.69122314453125 3.4671118164062498 9.702667236328125 3.4591772460937498 Q 9.714111328125 3.4512426757812498 9.72662353515625 3.4454443359374998 Q 9.7391357421875 3.4396459960937498 9.752716064453125 3.4362890624999998 Q 9.76629638671875 3.4329321289062498 9.78125 3.4329321289062498 Q 9.80657958984375 3.4329321289062498 9.8270263671875 3.4399511718749998 Q 9.84747314453125 3.4469702148437498 9.86181640625 3.4613134765624998 Q 9.87615966796875 3.4756567382812498 9.883941650390625 3.4980871582031248 Q 9.8917236328125 3.5205175781249998 9.8917236328125 3.5510351562499998 L 9.8917236328125 3.7024023437499998 L 9.9356689453125 3.7024023437499998 L 9.9356689453125 3.7548925781249998 L 9.7879638671875 3.7548925781249998 L 9.7879638671875 3.7024023437499998 M 10.228790283203125 3.7271215820312498 Q 10.213226318359375 3.7436010742187498 10.192626953125 3.7527563476562498 Q 10.172027587890625 3.7619116210937498 10.145782470703125 3.7619116210937498 Q 10.113739013671875 3.7619116210937498 10.08612060546875 3.7507727050781248 Q 10.058502197265625 3.7396337890624998 10.0382080078125 3.7181188964843748 Q 10.017913818359375 3.6966040039062498 10.0064697265625 3.6653234863281248 Q 9.995025634765625 3.6340429687499998 9.995025634765625 3.5937597656249998 Q 9.995025634765625 3.5571386718749998 10.006011962890625 3.5270788574218748 Q 10.016998291015625 3.4970190429687498 10.037139892578125 3.4758093261718748 Q 10.057281494140625 3.4545996093749998 10.085662841796875 3.4428503417968748 Q 10.114044189453125 3.4311010742187498 10.148834228515625 3.4311010742187498 Q 10.172637939453125 3.4311010742187498 10.19171142578125 3.4364416503906248 Q 10.210784912109375 3.4417822265624998 10.228790283203125 3.4549047851562498 L 10.228790283203125 3.4387304687499998 L 10.285552978515625 3.4387304687499998 L 10.285552978515625 3.7423803710937498 Q 10.285552978515625 3.8174536132812498 10.25 3.8559057617187498 Q 10.214447021484375 3.8943579101562498 10.139373779296875 3.8943579101562498 Q 10.122894287109375 3.8943579101562498 10.104888916015625 3.8919165039062498 Q 10.086883544921875 3.8894750976562498 10.0693359375 3.8841345214843748 Q 10.051788330078125 3.8787939453124998 10.03515625 3.8705541992187498 Q 10.018524169921875 3.8623144531249998 10.004486083984375 3.8504125976562498 L 10.035003662109375 3.8043310546874998 Q 10.044158935546875 3.8122656249999998 10.055908203125 3.8189794921874998 Q 10.067657470703125 3.8256933593749998 10.081085205078125 3.8304235839843748 Q 10.094512939453125 3.8351538085937498 10.108856201171875 3.8379003906249998 Q 10.123199462890625 3.8406469726562498 10.137542724609375 3.8406469726562498 Q 10.161041259765625 3.8406469726562498 10.17828369140625 3.8357641601562498 Q 10.195526123046875 3.8308813476562498 10.2066650390625 3.8185217285156248 Q 10.217803955078125 3.8061621093749998 10.223297119140625 3.7851049804687498 Q 10.228790283203125 3.7640478515624998 10.228790283203125 3.7316992187499998 L 10.228790283203125 3.7271215820312498 M 10.153106689453125 3.7124731445312498 Q 10.167144775390625 3.7124731445312498 10.178741455078125 3.7097265624999998 Q 10.190338134765625 3.7069799804687498 10.199798583984375 3.7025549316406248 Q 10.209259033203125 3.6981298828124998 10.2164306640625 3.6923315429687498 Q 10.223602294921875 3.6865332031249998 10.228790283203125 3.6801245117187498 L 10.228790283203125 3.5070898437499998 Q 10.213226318359375 3.4933569335937498 10.19293212890625 3.4872534179687498 Q 10.172637939453125 3.4811499023437498 10.151275634765625 3.4811499023437498 Q 10.131134033203125 3.4811499023437498 10.113433837890625 3.4886267089843748 Q 10.095733642578125 3.4961035156249998 10.08245849609375 3.5104467773437498 Q 10.069183349609375 3.5247900390624998 10.061553955078125 3.5455419921874998 Q 10.053924560546875 3.5662939453124998 10.053924560546875 3.5931494140624998 Q 10.053924560546875 3.6224462890624998 10.061248779296875 3.6447241210937498 Q 10.068572998046875 3.6670019531249998 10.081695556640625 3.6821081542968748 Q 10.094818115234375 3.6972143554687498 10.113128662109375 3.7048437499999998 Q 10.131439208984375 3.7124731445312498 10.153106689453125 3.7124731445312498 M 10.515045166015625 3.2922460937499998 L 10.662750244140625 3.2922460937499998 L 10.662750244140625 3.3450415039062498 L 10.618804931640625 3.3450415039062498 L 10.618804931640625 3.7024023437499998 L 10.662750244140625 3.7024023437499998 L 10.662750244140625 3.7548925781249998 L 10.515045166015625 3.7548925781249998 L 10.515045166015625 3.7024023437499998 L 10.558990478515625 3.7024023437499998 L 10.558990478515625 3.3450415039062498 L 10.515045166015625 3.3450415039062498 L 10.515045166015625 3.2922460937499998 M 10.94580078125 3.7024023437499998 L 10.9903564453125 3.7024023437499998 L 10.9903564453125 3.5580541992187498 Q 10.9903564453125 3.5217382812499998 10.971893310546875 3.5029699707031248 Q 10.95343017578125 3.4842016601562498 10.9189453125 3.4842016601562498 Q 10.89910888671875 3.4842016601562498 10.87896728515625 3.4936621093749998 Q 10.85882568359375 3.5031225585937498 10.8408203125 3.5171606445312498 L 10.8408203125 3.7024023437499998 L 10.8853759765625 3.7024023437499998 L 10.8853759765625 3.7548925781249998 L 10.7376708984375 3.7548925781249998 L 10.7376708984375 3.7024023437499998 L 10.7816162109375 3.7024023437499998 L 10.7816162109375 3.4912207031249998 L 10.7376708984375 3.4912207031249998 L 10.7376708984375 3.4387304687499998 L 10.83837890625 3.4387304687499998 L 10.83837890625 3.4759619140624998 L 10.8389892578125 3.4759619140624998 Q 10.84906005859375 3.4671118164062498 10.860504150390625 3.4591772460937498 Q 10.8719482421875 3.4512426757812498 10.88446044921875 3.4454443359374998 Q 10.89697265625 3.4396459960937498 10.910552978515625 3.4362890624999998 Q 10.92413330078125 3.4329321289062498 10.9390869140625 3.4329321289062498 Q 10.96441650390625 3.4329321289062498 10.98486328125 3.4399511718749998 Q 11.00531005859375 3.4469702148437498 11.0196533203125 3.4613134765624998 Q 11.03399658203125 3.4756567382812498 11.041778564453125 3.4980871582031248 Q 11.049560546875 3.5205175781249998 11.049560546875 3.5510351562499998 L 11.049560546875 3.7024023437499998 L 11.093505859375 3.7024023437499998 L 11.093505859375 3.7548925781249998 L 10.94580078125 3.7548925781249998 L 10.94580078125 3.7024023437499998 M 11.341766357421875 3.2800390624999998 L 11.441558837890625 3.2800390624999998 L 11.441558837890625 3.7024023437499998 L 11.487945556640625 3.7024023437499998 L 11.487945556640625 3.7548925781249998 L 11.384796142578125 3.7548925781249998 L 11.384796142578125 3.7289526367187498 Q 11.369537353515625 3.7445166015624998 11.349395751953125 3.7532141113281248 Q 11.329254150390625 3.7619116210937498 11.303619384765625 3.7619116210937498 Q 11.271575927734375 3.7619116210937498 11.24395751953125 3.7507727050781248 Q 11.216339111328125 3.7396337890624998 11.196044921875 3.7181188964843748 Q 11.175750732421875 3.6966040039062498 11.164306640625 3.6653234863281248 Q 11.152862548828125 3.6340429687499998 11.152862548828125 3.5937597656249998 Q 11.152862548828125 3.5571386718749998 11.163848876953125 3.5270788574218748 Q 11.174835205078125 3.4970190429687498 11.194976806640625 3.4758093261718748 Q 11.215118408203125 3.4545996093749998 11.243499755859375 3.4428503417968748 Q 11.271881103515625 3.4311010742187498 11.306671142578125 3.4311010742187498 Q 11.329559326171875 3.4311010742187498 11.348480224609375 3.4361364746093748 Q 11.367401123046875 3.4411718749999998 11.384796142578125 3.4536840820312498 L 11.384796142578125 3.3325292968749998 L 11.341766357421875 3.3325292968749998 L 11.341766357421875 3.2800390624999998 M 11.310943603515625 3.7124731445312498 Q 11.336273193359375 3.7124731445312498 11.353363037109375 3.7049963378906248 Q 11.370452880859375 3.6975195312499998 11.384796142578125 3.6825659179687498 L 11.384796142578125 3.5055639648437498 Q 11.369537353515625 3.4927465820312498 11.349700927734375 3.4869482421874998 Q 11.329864501953125 3.4811499023437498 11.309112548828125 3.4811499023437498 Q 11.288970947265625 3.4811499023437498 11.271270751953125 3.4886267089843748 Q 11.253570556640625 3.4961035156249998 11.24029541015625 3.5104467773437498 Q 11.227020263671875 3.5247900390624998 11.219390869140625 3.5455419921874998 Q 11.211761474609375 3.5662939453124998 11.211761474609375 3.5931494140624998 Q 11.211761474609375 3.6224462890624998 11.219085693359375 3.6447241210937498 Q 11.226409912109375 3.6670019531249998 11.239532470703125 3.6821081542968748 Q 11.252655029296875 3.6972143554687498 11.270965576171875 3.7048437499999998 Q 11.289276123046875 3.7124731445312498 11.310943603515625 3.7124731445312498 M 11.73345947265625 3.4387304687499998 L 11.83538818359375 3.4387304687499998 L 11.83538818359375 3.7024023437499998 L 11.8704833984375 3.7024023437499998 L 11.8704833984375 3.7548925781249998 L 11.7783203125 3.7548925781249998 L 11.7783203125 3.7255957031249998 Q 11.7569580078125 3.7420751953124998 11.731781005859375 3.7512304687499998 Q 11.70660400390625 3.7603857421874998 11.67791748046875 3.7603857421874998 Q 11.65411376953125 3.7603857421874998 11.634735107421875 3.7535192871093748 Q 11.6153564453125 3.7466528320312498 11.601776123046875 3.7321569824218748 Q 11.58819580078125 3.7176611328124998 11.58087158203125 3.6953833007812498 Q 11.57354736328125 3.6731054687499998 11.57354736328125 3.6422827148437498 L 11.57354736328125 3.4912207031249998 L 11.53082275390625 3.4912207031249998 L 11.53082275390625 3.4387304687499998 L 11.63275146484375 3.4387304687499998 L 11.63275146484375 3.6355688476562498 Q 11.63275146484375 3.6718847656249998 11.6495361328125 3.6905004882812498 Q 11.66632080078125 3.7091162109374998 11.69775390625 3.7091162109374998 Q 11.71636962890625 3.7091162109374998 11.736968994140625 3.7024023437499998 Q 11.757568359375 3.6956884765624998 11.77587890625 3.6837866210937498 L 11.77587890625 3.4912207031249998 L 11.73345947265625 3.4912207031249998 L 11.73345947265625 3.4387304687499998 M 12.13232421875 3.5017492675781248 Q 12.126373291015625 3.4927465820312498 12.116912841796875 3.4871008300781248 Q 12.107452392578125 3.4814550781249998 12.095855712890625 3.4788610839843748 Q 12.084259033203125 3.4762670898437498 12.073272705078125 3.4762670898437498 Q 12.061065673828125 3.4762670898437498 12.05084228515625 3.4790136718749998 Q 12.040618896484375 3.4817602539062498 12.033294677734375 3.4869482421874998 Q 12.025970458984375 3.4921362304687498 12.0218505859375 3.4996130371093748 Q 12.017730712890625 3.5070898437499998 12.017730712890625 3.5162451171874998 Q 12.017730712890625 3.5321142578124998 12.02734375 3.5414221191406248 Q 12.036956787109375 3.5507299804687498 12.059539794921875 3.5586645507812498 L 12.120269775390625 3.5800268554687498 Q 12.159332275390625 3.5931494140624998 12.177337646484375 3.6157324218749998 Q 12.195343017578125 3.6383154296874998 12.195343017578125 3.6697485351562498 Q 12.195343017578125 3.6908056640624998 12.18695068359375 3.7083532714843748 Q 12.178558349609375 3.7259008789062498 12.16314697265625 3.7382604980468748 Q 12.147735595703125 3.7506201171874998 12.126068115234375 3.7574865722656248 Q 12.104400634765625 3.7643530273437498 12.077850341796875 3.7643530273437498 Q 12.040924072265625 3.7643530273437498 12.017730712890625 3.7524511718749998 Q 11.994537353515625 3.7405493164062498 11.982025146484375 3.7210180664062498 L 11.950286865234375 3.7210180664062498 L 11.950286865234375 3.6685278320312498 L 12.013458251953125 3.6685278320312498 Q 12.013458251953125 3.6816503906249998 12.01910400390625 3.6909582519531248 Q 12.024749755859375 3.7002661132812498 12.0340576171875 3.7060644531249998 Q 12.043365478515625 3.7118627929687498 12.05511474609375 3.7146093749999998 Q 12.066864013671875 3.7173559570312498 12.079071044921875 3.7173559570312498 Q 12.090972900390625 3.7173559570312498 12.101959228515625 3.7144567871093748 Q 12.112945556640625 3.7115576171874998 12.121337890625 3.7059118652343748 Q 12.129730224609375 3.7002661132812498 12.134613037109375 3.6923315429687498 Q 12.139495849609375 3.6843969726562498 12.139495849609375 3.6743261718749998 Q 12.139495849609375 3.6590673828124998 12.12957763671875 3.6483862304687498 Q 12.119659423828125 3.6377050781249998 12.095855712890625 3.6291601562499998 L 12.035430908203125 3.6065771484374998 Q 11.998504638671875 3.5934545898437498 11.98065185546875 3.5731604003906248 Q 11.962799072265625 3.5528662109374998 11.962799072265625 3.5223486328124998 Q 11.962799072265625 3.5022070312499998 11.97027587890625 3.4851171874999998 Q 11.977752685546875 3.4680273437499998 11.991943359375 3.4556677246093748 Q 12.006134033203125 3.4433081054687498 12.026580810546875 3.4362890624999998 Q 12.047027587890625 3.4292700195312498 12.073272705078125 3.4292700195312498 Q 12.107147216796875 3.4292700195312498 12.130035400390625 3.4387304687499998 Q 12.152923583984375 3.4481909179687498 12.171234130859375 3.4710791015624998 L 12.200836181640625 3.4710791015624998 L 12.200836181640625 3.5235693359374998 L 12.138275146484375 3.5235693359374998 Q 12.138275146484375 3.5107519531249998 12.13232421875 3.5017492675781248 M 12.35113525390625 3.4387304687499998 L 12.42529296875 3.4387304687499998 L 12.42529296875 3.4848120117187498 L 12.35052490234375 3.4848120117187498 L 12.349609375 3.6673071289062498 Q 12.349609375 3.6859228515624998 12.3538818359375 3.6975195312499998 Q 12.358154296875 3.7091162109374998 12.36761474609375 3.7135412597656248 Q 12.3770751953125 3.7179663085937498 12.38897705078125 3.7179663085937498 Q 12.40179443359375 3.7179663085937498 12.41156005859375 3.7156774902343748 Q 12.42132568359375 3.7133886718749998 12.43292236328125 3.7078955078124998 L 12.446044921875 3.7460424804687498 Q 12.431396484375 3.7536718749999998 12.41522216796875 3.7580969238281248 Q 12.3990478515625 3.7625219726562498 12.3770751953125 3.7625219726562498 Q 12.3563232421875 3.7625219726562498 12.340911865234375 3.7574865722656248 Q 12.32550048828125 3.7524511718749998 12.314971923828125 3.7405493164062498 Q 12.304443359375 3.7286474609374998 12.29925537109375 3.7086584472656248 Q 12.2940673828125 3.6886694335937498 12.2940673828125 3.6587622070312498 L 12.29498291015625 3.4848120117187498 L 12.24462890625 3.4848120117187498 L 12.24462890625 3.4387304687499998 L 12.29559326171875 3.4387304687499998 L 12.29559326171875 3.3630468749999998 L 12.35113525390625 3.3368017578124998 L 12.35113525390625 3.4387304687499998 M 12.720245361328125 3.5055639648437498 L 12.662261962890625 3.5055639648437498 L 12.662261962890625 3.4860327148437498 Q 12.652191162109375 3.4860327148437498 12.64166259765625 3.4898474121093748 Q 12.631134033203125 3.4936621093749998 12.621978759765625 3.5014440917968748 Q 12.612823486328125 3.5092260742187498 12.60595703125 3.5212805175781248 Q 12.599090576171875 3.5333349609374998 12.596038818359375 3.5498144531249998 L 12.596038818359375 3.7024023437499998 L 12.649749755859375 3.7024023437499998 L 12.649749755859375 3.7548925781249998 L 12.492889404296875 3.7548925781249998 L 12.492889404296875 3.7024023437499998 L 12.536529541015625 3.7024023437499998 L 12.536834716796875 3.4912207031249998 L 12.492889404296875 3.4912207031249998 L 12.492889404296875 3.4387304687499998 L 12.593902587890625 3.4387304687499998 L 12.593902587890625 3.4823706054687498 Q 12.599395751953125 3.4726049804687498 12.60626220703125 3.4642126464843748 Q 12.613128662109375 3.4558203124999998 12.62152099609375 3.4495642089843748 Q 12.629913330078125 3.4433081054687498 12.64013671875 3.4397985839843748 Q 12.650360107421875 3.4362890624999998 12.662261962890625 3.4362890624999998 Q 12.678131103515625 3.4362890624999998 12.692169189453125 3.4362890624999998 Q 12.706207275390625 3.4362890624999998 12.720245361328125 3.4368994140624998 L 12.720245361328125 3.5055639648437498 M 12.7841796875 3.4387304687499998 L 12.8873291015625 3.4387304687499998 L 12.8873291015625 3.7024023437499998 L 12.9349365234375 3.7024023437499998 L 12.9349365234375 3.7548925781249998 L 12.7847900390625 3.7548925781249998 L 12.7847900390625 3.7024023437499998 L 12.8299560546875 3.7024023437499998 L 12.8299560546875 3.4912207031249998 L 12.7841796875 3.4912207031249998 L 12.7841796875 3.4387304687499998 M 12.81927490234375 3.3267309570312498 Q 12.81927490234375 3.3187963867187498 12.822479248046875 3.3116247558593748 Q 12.82568359375 3.3044531249999998 12.831024169921875 3.2991125488281248 Q 12.83636474609375 3.2937719726562498 12.84368896484375 3.2905676269531248 Q 12.85101318359375 3.2873632812499998 12.8592529296875 3.2873632812499998 Q 12.8671875 3.2873632812499998 12.874359130859375 3.2905676269531248 Q 12.88153076171875 3.2937719726562498 12.886871337890625 3.2991125488281248 Q 12.8922119140625 3.3044531249999998 12.895416259765625 3.3116247558593748 Q 12.89862060546875 3.3187963867187498 12.89862060546875 3.3267309570312498 Q 12.89862060546875 3.3349707031249998 12.895416259765625 3.3422949218749998 Q 12.8922119140625 3.3496191406249998 12.886871337890625 3.3552648925781248 Q 12.88153076171875 3.3609106445312498 12.874359130859375 3.3641149902343748 Q 12.8671875 3.3673193359374998 12.8592529296875 3.3673193359374998 Q 12.85101318359375 3.3673193359374998 12.84368896484375 3.3641149902343748 Q 12.83636474609375 3.3609106445312498 12.831024169921875 3.3552648925781248 Q 12.82568359375 3.3496191406249998 12.822479248046875 3.3422949218749998 Q 12.81927490234375 3.3349707031249998 12.81927490234375 3.3267309570312498 M 13.041595458984375 3.6041357421874998 Q 13.041595458984375 3.6175634765624998 13.0435791015625 3.6287023925781248 Q 13.045562744140625 3.6398413085937498 13.049224853515625 3.6499121093749998 Q 13.060516357421875 3.6804296874999998 13.08538818359375 3.6958410644531248 Q 13.110260009765625 3.7112524414062498 13.141693115234375 3.7112524414062498 Q 13.166412353515625 3.7112524414062498 13.18975830078125 3.7043859863281248 Q 13.213104248046875 3.6975195312499998 13.238739013671875 3.6828710937499998 L 13.261627197265625 3.7216284179687498 Q 13.230499267578125 3.7429907226562498 13.199066162109375 3.7533666992187498 Q 13.167633056640625 3.7637426757812498 13.133758544921875 3.7637426757812498 Q 13.101715087890625 3.7637426757812498 13.07440185546875 3.7530615234374998 Q 13.047088623046875 3.7423803710937498 13.02740478515625 3.7213232421874998 Q 13.007720947265625 3.7002661132812498 12.99658203125 3.6688330078124998 Q 12.985443115234375 3.6373999023437498 12.985443115234375 3.5955908203124998 Q 12.985443115234375 3.5617163085937498 12.994903564453125 3.5316564941406248 Q 13.004364013671875 3.5015966796874998 13.02313232421875 3.4791662597656248 Q 13.041900634765625 3.4567358398437498 13.069671630859375 3.4436132812499998 Q 13.097442626953125 3.4304907226562498 13.134368896484375 3.4304907226562498 Q 13.170074462890625 3.4304907226562498 13.19403076171875 3.4413244628906248 Q 13.217987060546875 3.4521582031249998 13.23309326171875 3.4700109863281248 Q 13.248199462890625 3.4878637695312498 13.2559814453125 3.5107519531249998 Q 13.263763427734375 3.5336401367187498 13.266815185546875 3.5574438476562498 Q 13.268341064453125 3.5690405273437498 13.268798828125 3.5809423828124998 Q 13.269256591796875 3.5928442382812498 13.269256591796875 3.6041357421874998 L 13.041595458984375 3.6041357421874998 M 13.130401611328125 3.4780981445312498 Q 13.110565185546875 3.4780981445312498 13.09576416015625 3.4837438964843748 Q 13.080963134765625 3.4893896484374998 13.070587158203125 3.4999182128906248 Q 13.060211181640625 3.5104467773437498 13.053955078125 3.5257055664062498 Q 13.047698974609375 3.5409643554687498 13.044647216796875 3.5598852539062498 L 13.208526611328125 3.5598852539062498 Q 13.207305908203125 3.5421850585937498 13.202880859375 3.5272314453124998 Q 13.198455810546875 3.5122778320312498 13.189300537109375 3.5012915039062498 Q 13.180145263671875 3.4903051757812498 13.165802001953125 3.4842016601562498 Q 13.151458740234375 3.4780981445312498 13.130401611328125 3.4780981445312498 M 13.523773193359375 3.5017492675781248 Q 13.517822265625 3.4927465820312498 13.50836181640625 3.4871008300781248 Q 13.4989013671875 3.4814550781249998 13.4873046875 3.4788610839843748 Q 13.4757080078125 3.4762670898437498 13.4647216796875 3.4762670898437498 Q 13.4525146484375 3.4762670898437498 13.442291259765625 3.4790136718749998 Q 13.43206787109375 3.4817602539062498 13.42474365234375 3.4869482421874998 Q 13.41741943359375 3.4921362304687498 13.413299560546875 3.4996130371093748 Q 13.4091796875 3.5070898437499998 13.4091796875 3.5162451171874998 Q 13.4091796875 3.5321142578124998 13.418792724609375 3.5414221191406248 Q 13.42840576171875 3.5507299804687498 13.45098876953125 3.5586645507812498 L 13.51171875 3.5800268554687498 Q 13.55078125 3.5931494140624998 13.56878662109375 3.6157324218749998 Q 13.5867919921875 3.6383154296874998 13.5867919921875 3.6697485351562498 Q 13.5867919921875 3.6908056640624998 13.578399658203125 3.7083532714843748 Q 13.57000732421875 3.7259008789062498 13.554595947265625 3.7382604980468748 Q 13.5391845703125 3.7506201171874998 13.51751708984375 3.7574865722656248 Q 13.495849609375 3.7643530273437498 13.46929931640625 3.7643530273437498 Q 13.432373046875 3.7643530273437498 13.4091796875 3.7524511718749998 Q 13.385986328125 3.7405493164062498 13.37347412109375 3.7210180664062498 L 13.34173583984375 3.7210180664062498 L 13.34173583984375 3.6685278320312498 L 13.4049072265625 3.6685278320312498 Q 13.4049072265625 3.6816503906249998 13.410552978515625 3.6909582519531248 Q 13.41619873046875 3.7002661132812498 13.425506591796875 3.7060644531249998 Q 13.434814453125 3.7118627929687498 13.446563720703125 3.7146093749999998 Q 13.45831298828125 3.7173559570312498 13.47052001953125 3.7173559570312498 Q 13.482421875 3.7173559570312498 13.493408203125 3.7144567871093748 Q 13.50439453125 3.7115576171874998 13.512786865234375 3.7059118652343748 Q 13.52117919921875 3.7002661132812498 13.52606201171875 3.6923315429687498 Q 13.53094482421875 3.6843969726562498 13.53094482421875 3.6743261718749998 Q 13.53094482421875 3.6590673828124998 13.521026611328125 3.6483862304687498 Q 13.5111083984375 3.6377050781249998 13.4873046875 3.6291601562499998 L 13.4268798828125 3.6065771484374998 Q 13.38995361328125 3.5934545898437498 13.372100830078125 3.5731604003906248 Q 13.354248046875 3.5528662109374998 13.354248046875 3.5223486328124998 Q 13.354248046875 3.5022070312499998 13.361724853515625 3.4851171874999998 Q 13.36920166015625 3.4680273437499998 13.383392333984375 3.4556677246093748 Q 13.3975830078125 3.4433081054687498 13.41802978515625 3.4362890624999998 Q 13.4384765625 3.4292700195312498 13.4647216796875 3.4292700195312498 Q 13.49859619140625 3.4292700195312498 13.521484375 3.4387304687499998 Q 13.54437255859375 3.4481909179687498 13.56268310546875 3.4710791015624998 L 13.59228515625 3.4710791015624998 L 13.59228515625 3.5235693359374998 L 13.52972412109375 3.5235693359374998 Q 13.52972412109375 3.5107519531249998 13.523773193359375 3.5017492675781248" fill="#eda0a0" fill-rule="nonzero"></path></g><g clip-path="url(#SvgjsClipPath1003)"><g clip-path="url(#SvgjsClipPath1000bed60b14-b4d2-4661-8eb0-db76742b8f76)"><path d=" M 10.53398991570874 -7.7224742495231045 L 13.57296934224109 -4.6834948229907685 C 14.229037695553648 -4.0231133065103695 14.229037695553648 -2.9569906253910023 13.57296934224109 -2.2966091089106033 L 13.00254201502961 -1.7261817816991218 C 12.342052125368056 -1.0694985469675373 11.275218163505963 -1.0694985469675373 10.61472827384441 -1.7261817816991218 L 10.185979751330823 -2.1546209618444045 L 11.874679740076767 -3.843320950590334 L 10.185979751330823 -3.843320950590334 L 6.592968143108801 -0.24999999999998224 L 6.592968143108801 -3.2447434678602765 C 6.593487335020327 -3.7022491290512214 6.7802247421340285 -4.1398311631848586 7.110188582966586 -4.456746867000552 L 8.320335927896735 -5.667203554299073 C 8.650239717453392 -5.984160732189361 8.836965682684461 -6.4217159545429805 8.83755636775447 -6.879206953439313 L 8.83755636775447 -8.714225882408144 L 5.798576941222071 -5.675246455875806 C 5.1381954247417205 -5.019178102563291 4.072072743622323 -5.019178102563291 3.4116912271419735 -5.675246455875806 L 2.8412638999304427 -6.2456737830872875 C 2.1845806651988884 -6.906163672748846 2.1845806651988884 -7.972997634610882 2.8412638999304427 -8.633487524272455 L 3.2697030800757627 -9.062236046786072 L 4.958403068821705 -7.373536058040143 L 4.958403068821705 -9.062236046786072 L 1.3650821182313657 -12.65524765500809 L 4.359825586091666 -12.65524765500809 C 4.81733124728261 -12.6547284630966 5.254913281416242 -12.467991055982907 5.571828985231917 -12.138027215150398 L 6.782285672530432 -10.927879870220169 C 7.099201376346008 -10.597916029387655 7.536783410479689 -10.411178622273958 7.994289071670533 -10.410659430362465 L 9.829308000639477 -10.410659430362465 L 6.790328574107128 -13.4496388568948 C 6.134224278395917 -14.110126195977912 6.134224278395917 -15.176346574260185 6.790328574107128 -15.836833913343296 L 7.360755901318608 -16.407261240554785 C 8.021385238252332 -17.063606351981697 9.087940305570035 -17.063606351981697 9.748569642503806 -16.407261240554785 L 10.177318165017393 -15.978512718041165 L 8.488618176271451 -14.289812729295235 L 10.177318165017393 -14.289812729295235 L 13.770329773239416 -17.88313367988558 L 13.770329773239416 -14.88839021202528 C 13.76981058132784 -14.430884550834335 13.583073174214189 -13.993302516700698 13.25310933338163 -13.67638681288501 L 12.042961988451482 -12.465930125586482 C 11.712998147618976 -12.149014421770776 11.526260740505224 -11.711432387637126 11.525741548593748 -11.253926726446245 L 11.525741548593748 -9.41890779747742 L 14.564720975126097 -12.457887224009756 C 15.22520831420922 -13.113991519720967 16.291428692491536 -13.113991519720967 16.95191603157466 -12.457887224009756 L 17.522034016417827 -11.887459896798276 C 18.17871725114938 -11.22697000713671 18.17871725114938 -10.160136045274669 17.522034016417827 -9.499646155613108 L 17.093594836272555 -9.070897633099484 L 15.404894847526561 -10.75959762184542 L 15.404894847526561 -9.070897633099484 L 18.998215798116952 -5.477886024877467 L 16.0034723302566 -5.477886024877467 C 15.545966669065658 -5.478405216788955 15.108384634932026 -5.665142623902652 14.79146893111635 -5.995106464735166 L 13.581012243817884 -7.205253809665395 C 13.26409654000226 -7.535217650497902 12.826514505868579 -7.7219550576115985 12.369008844677735 -7.722474249523092 Z" fill="#3682ae" transform="matrix(1,0,0,1,0,0)" fill-rule="evenodd"></path></g></g></g><defs><clipPath id="SvgjsClipPath1003"><path d=" M 1.3641540911263643 -17.884061706990607 h 17.63375236462227 v 17.634061706990607 h -17.63375236462227 Z"></path></clipPath><clipPath id="SvgjsClipPath1000bed60b14-b4d2-4661-8eb0-db76742b8f76"><path d=" M 1.3641540911263659 -17.884061706990607 L 18.997906455748634 -17.884061706990607 L 18.997906455748634 -0.25 L 1.3641540911263674 -0.25 Z"></path></clipPath></defs></svg>